<?xml version="1.0" encoding="UTF-8" standalone="no"?>
<!-- Created with Inkscape (http://www.inkscape.org/) -->

<svg
   xmlns:dc="http://purl.org/dc/elements/1.1/"
   xmlns:cc="http://creativecommons.org/ns#"
   xmlns:rdf="http://www.w3.org/1999/02/22-rdf-syntax-ns#"
   xmlns:svg="http://www.w3.org/2000/svg"
   xmlns="http://www.w3.org/2000/svg"
   xmlns:xlink="http://www.w3.org/1999/xlink"
   xmlns:sodipodi="http://sodipodi.sourceforge.net/DTD/sodipodi-0.dtd"
   xmlns:inkscape="http://www.inkscape.org/namespaces/inkscape"
   version="1.1"
   width="24"
   height="24"
   id="svg3869"
   inkscape:version="0.48.0 r9654"
   sodipodi:docname="vineyard-panel-alert.svg">
  <sodipodi:namedview
     pagecolor="#ffffff"
     bordercolor="#666666"
     borderopacity="1"
     objecttolerance="10"
     gridtolerance="10"
     guidetolerance="10"
     inkscape:pageopacity="0"
     inkscape:pageshadow="2"
     inkscape:window-width="877"
     inkscape:window-height="782"
     id="namedview14"
     showgrid="true"
     inkscape:zoom="16"
     inkscape:cx="10.845377"
     inkscape:cy="10.251075"
     inkscape:window-x="3"
     inkscape:window-y="24"
     inkscape:window-maximized="0"
     inkscape:current-layer="svg3869"
     inkscape:snap-global="true">
    <inkscape:grid
       type="xygrid"
       id="grid3831" />
  </sodipodi:namedview>
  <defs
     id="defs3871">
    <linearGradient
       id="linearGradient3843">
      <stop
         id="stop3845"
         offset="0"
         style="stop-color:#f05948;stop-opacity:1;" />
      <stop
         id="stop3847"
         offset="1"
         style="stop-color:#cb0705;stop-opacity:1;" />
    </linearGradient>
    <linearGradient
       id="linearGradient3787">
      <stop
         style="stop-color:#f9f9f9;stop-opacity:1;"
         offset="0"
         id="stop3789" />
      <stop
         style="stop-color:#bababa;stop-opacity:1;"
         offset="1"
         id="stop3791" />
    </linearGradient>
    <linearGradient
       inkscape:collect="always"
       xlink:href="#linearGradient3787"
       id="linearGradient3793"
       x1="16.558506"
       y1="3.0659249"
       x2="16.558506"
       y2="20.961962"
       gradientUnits="userSpaceOnUse" />
    <linearGradient
       inkscape:collect="always"
       xlink:href="#linearGradient3843"
       id="linearGradient3841"
       x1="16"
       y1="9"
       x2="16"
       y2="16"
       gradientUnits="userSpaceOnUse" />
    <linearGradient
       inkscape:collect="always"
       xlink:href="#linearGradient3843"
       id="linearGradient3851"
       gradientUnits="userSpaceOnUse"
       x1="16"
       y1="9"
       x2="16"
       y2="12"
       gradientTransform="translate(0,8)" />
    <linearGradient
       inkscape:collect="always"
       xlink:href="#linearGradient3843"
       id="linearGradient3857"
       gradientUnits="userSpaceOnUse"
       x1="16"
       y1="9"
       x2="16"
       y2="16" />
    <linearGradient
       inkscape:collect="always"
       xlink:href="#linearGradient3843"
       id="linearGradient3859"
       gradientUnits="userSpaceOnUse"
       gradientTransform="translate(0,8)"
       x1="16"
       y1="9"
       x2="16"
       y2="12" />
  </defs>
  <metadata
     id="metadata3874">
    <rdf:RDF>
      <cc:Work
         rdf:about="">
        <dc:format>image/svg+xml</dc:format>
        <dc:type
           rdf:resource="http://purl.org/dc/dcmitype/StillImage" />
        <dc:title></dc:title>
      </cc:Work>
    </rdf:RDF>
  </metadata>
  <path
     inkscape:connector-curvature="0"
     style="fill:#000000;fill-opacity:1;stroke-width:1;stroke-miterlimit:4;stroke-dasharray:none;opacity:0.2"
     id="path3819"
     d="m 6.230781,21.7682 c -1.34279,-0.4842 -2.22803,-1.7578 -2.23078,-3.2093 -9.9e-4,-0.5754 0.73289,-1.9699 1.16591,-2.215 0.2406,-0.1363 0.21857,-0.2423 -0.17105,-0.8232 -1.02149,-1.523 -0.62311,-3.6725 0.83848,-4.5243 0.20155,-0.1174 0.21232,-0.316 0.0581,-1.0708 C 5.730611,9.1388 5.750311,8.8908 6.022081,8.281 6.380401,7.477 6.842721,6.9825 7.613091,6.5792 8.079671,6.3349 8.097971,6.2951 7.789871,6.1944 7.116191,5.9743 6.028411,5.5052 5.811021,5.3411 5.443351,5.0636 5.561151,4.3728 6.041341,3.9906 c 0.77765,-0.6189 5.408,-1.9877 6.73406,-1.9907 0.68664,0 1.4638,0.8257 1.92594,2.05 0.26715,0.7078 0.37276,0.82 0.68463,0.7273 1.55607,-0.4624 2.13912,-0.1722 3.47266,1.7281 1.66383,2.3711 2.61354,4.8074 2.11224,5.4186 -0.43999,0.5364 -1.34498,0.2822 -2.94989,-0.8285 -0.87225,-0.6037 -1.13236,-0.6309 -1.5516,-0.1622 -0.30158,0.3372 -0.29656,0.3533 0.14518,0.4655 0.64029,0.1626 1.64741,1.3511 1.87751,2.2157 0.27135,1.0196 -0.0385,2.0614 -0.86039,2.893 -0.65877,0.6665 -1.89584,1.159 -2.50589,0.9976 -0.23745,-0.063 -0.33756,0.057 -0.42002,0.5014 -0.34131,1.8408 -2.38353,3.0167 -4.1543,2.3922 -0.54141,-0.191 -0.5990101,-0.1677 -1.0966001,0.4431 -0.36846,0.4522 -0.79566,0.7259 -1.4315799,0.917 -1.06668,0.3205 -0.93233,0.3197 -1.79246,0.01 l 0,0 z m 1.92431,-0.889 c 2.16614,-0.9158 1.4392699,-4.3929 -0.91832,-4.3929 -1.51728,0 -2.35387,0.8502 -2.35387,2.392 0,0.6059 0.11448,0.9377 0.47172,1.3673 0.75666,0.9098 1.66231,1.1147 2.80047,0.6336 z m 4.72398,-1.4698 c 1.3949,-0.7109 1.33835,-3.1198 -0.094,-4.0035 -0.98634,-0.6085 -2.44899,-0.3057 -3.0567501,0.6328 -0.29515,0.4557 -0.29398,0.5012 0.0266,1.0434 0.18433,0.3117 0.3766701,0.9693 0.4274201,1.4611 0.0859,0.8327 0.13493,0.9087 0.71099,1.1035 0.66119,0.2235 1.21023,0.1579 1.98576,-0.2373 l 0,0 z m 3.6877,-3.0212 c 0.68983,-0.3609 1.21935,-1.2577 1.22018,-2.0665 7.6e-4,-0.7464 -0.59815,-1.7484 -1.24208,-2.0781 -0.61187,-0.3132 -1.70607,-0.2827 -2.28576,0.064 -1.03052,0.616 -1.3975,2.0365 -0.69121,2.6757 0.20707,0.1874 0.56604,0.6425 0.7977,1.0114 0.35692,0.5684 0.5167,0.6708 1.04651,0.6708 0.34391,0 0.8635,-0.1247 1.15466,-0.277 l 0,0 z M 9.2332609,15.2055 c 0.64432,-0.6504 0.7689901,-1.9655 0.26349,-2.7796 -1.2127899,-1.953 -4.2602899,-1.1551 -4.2602899,1.1155 0,0.8578 0.35374,1.7555 0.78689,1.997 0.14112,0.079 0.81499,0.1431 1.49749,0.1431 1.1076799,0 1.2915399,-0.051 1.7124199,-0.476 l 0,0 z m 3.0742601,-1.1668 c 0,-0.5935 0.75604,-1.8658 1.3524,-2.2758 l 0.60748,-0.4176 -0.45539,-0.5476 c -0.89688,-1.0785 -2.48602,-1.1606 -3.45651,-0.1787 -0.6229501,0.6303 -0.6261901,0.6616 -0.15259,1.4737 0.20364,0.3492 0.39508,0.9776 0.42545,1.3964 0.0304,0.4188 0.0626,0.7816 0.0718,0.8062 0.009,0.025 0.37446,0.045 0.81198,0.045 0.62794,0 0.79548,-0.063 0.79548,-0.3013 z m 7.77818,-3.2096 c 0,-0.5199 -1.61762,-3.4122 -2.44119,-4.3647 -0.85982,-0.9945 -0.87259,-0.9976 -2.5415,-0.6051 -0.4479,0.1053 -0.51603,0.029 -1.19914,-1.3458 -0.39835,-0.8016 -0.82597,-1.497 -0.95027,-1.5452 -0.49141,-0.1908 -6.12616,1.3786 -6.12616,1.7062 0,0.1548 0.48367,0.3705 1.8561699,0.8279 0.48614,0.1621 1.08275,0.4346 1.3258301,0.6057 0.24305,0.1711 0.94308,0.5366 1.5556,0.8122 1.22249,0.55 1.44959,0.826 1.44959,1.7618 0,0.4567 0.0903,0.6547 0.33445,0.7331 0.18394,0.059 0.59373,0.3757 0.91065,0.7037 0.66817,0.6914 1.01632,0.6731 1.89884,-0.1 0.31937,-0.2797 0.71713,-0.5068 0.88389,-0.5047 0.16677,0 0.85319,0.3643 1.52538,0.8049 1.34489,0.8815 1.51786,0.9395 1.51786,0.5096 z M 9.5313209,10.4189 c 0.16787,-0.2876 0.6204901,-0.6699 1.0058301,-0.8496 0.38533,-0.1798 0.70265,-0.4558 0.70516,-0.6134 0.009,-0.5846 -0.79222,-1.4984 -1.5480101,-1.7648 -0.65574,-0.2311 -0.83532,-0.2311 -1.4910599,0 -0.95047,0.335 -1.55361,1.1958 -1.54986,2.212 0.004,0.9593 0.11568,1.0834 1.02352,1.1328 0.41858,0.023 0.8958599,0.1209 1.0606599,0.2181 0.42985,0.2536 0.45661,0.2424 0.79376,-0.3351 z M 11.983751,8.2173 c -0.13117,-0.1327 -0.15418,-0.063 -0.0773,0.2347 0.0625,0.2418 0.14265,0.3229 0.18678,0.1889 0.0425,-0.129 -0.007,-0.3196 -0.10948,-0.4236 z" />
  <path
     style="fill:url(#linearGradient3793);fill-opacity:1;stroke-width:1;stroke-miterlimit:4;stroke-dasharray:none"
     d="M 12.6875 3 C 12.28715 3.0461813 11.465108 3.21655 10.59375 3.4375 C 8.5592999 3.9532 6.80975 4.56265 6.90625 4.71875 C 6.97506 4.83005 7.4276101 5.02535 8.3125 5.34375 C 8.78067 5.51225 9.36718 5.7429 9.625 5.875 C 9.88281 6.0072 10.62812 6.4148 11.28125 6.75 C 12.64459 7.4496 12.89093 7.6164 13 8.125 C 13.0384 8.3043 13.0625 8.5874 13.0625 8.75 C 13.0625 9.1001 13.15332 9.30415 13.46875 9.46875 C 13.59539 9.53485 13.91732 9.78615 14.1875 10.03125 C 14.68348 10.48125 14.87086 10.59375 15.125 10.59375 C 15.27918 10.59375 15.74407 10.31905 16.28125 9.90625 C 16.81587 9.49585 16.97014 9.46305 17.3125 9.59375 C 17.46779 9.65305 18.01887 9.977 18.5625 10.3125 C 19.10613 10.648 19.64051 10.953 19.75 11 C 20.00345 11.1076 20.08425 11.03225 20.03125 10.71875 C 19.92659 10.09925 18.38562 7.41015 17.59375 6.46875 C 16.85924 5.59555 16.69735 5.55105 15.65625 5.78125 C 14.85602 5.95785 14.71783 5.9324 14.53125 5.6875 C 14.44614 5.5757 14.15718 5.06405 13.875 4.53125 C 13.3734 3.58405 13.05935 3.075 12.9375 3 C 12.91365 2.98525 12.82095 2.9846062 12.6875 3 z M 8.90625 7.09375 C 8.7974933 7.0967455 8.6638712 7.0986 8.5625 7.125 C 7.6098901 7.3732 7.04502 7.87125 6.78125 8.71875 C 6.59844 9.30605 6.67471 10.15165 6.90625 10.34375 C 6.95515 10.38435 7.35141 10.46925 7.78125 10.53125 C 8.26745 10.60125 8.63326 10.67 8.78125 10.75 C 8.91208 10.8209 9.05205 10.90625 9.09375 10.90625 C 9.13544 10.90855 9.30153 10.73145 9.4375 10.53125 C 9.73588 10.09185 9.9778199 9.8667 10.5 9.5625 C 11.24397 9.1292 11.3261 8.9434 11 8.375 C 10.553347 7.5965125 9.6675466 7.0727814 8.90625 7.09375 z M 12 10 C 11.35167 9.9999 10.93721 10.1601 10.4375 10.625 C 9.8356699 11.1849 9.7886899 11.30915 10.15625 11.96875 C 10.38913 12.38675 10.60275 13.0018 10.65625 13.5 C 10.74059 14.2853 10.71255 14.25125 10.96875 14.28125 C 11.22505 14.31225 12.02387 14.26975 12.15625 14.21875 C 12.20248 14.20105 12.2756 14.0525 12.3125 13.875 C 12.48512 13.0445 13.17028 12.04595 13.875 11.59375 C 14.04424 11.48515 14.1875 11.3465 14.1875 11.3125 C 14.1875 11.2784 13.98022 11.0509 13.75 10.8125 C 13.46639 10.5187 13.21395 10.3236 12.9375 10.1875 C 12.57492 10.0085 12.47343 10.0001 12 10 z M 7.4375 11.34375 C 6.4116894 11.37265 5.4732462 12.158062 5.3125 13.1875 C 5.19059 13.9683 5.46666 15.00835 5.90625 15.40625 C 5.97655 15.46985 6.19252 15.56575 6.375 15.59375 C 6.55748 15.62175 7.14062 15.635 7.65625 15.625 C 8.6854599 15.6103 8.79919 15.5678 9.1875 15.1875 C 9.62459 14.7595 9.84615 13.8884 9.71875 13.1875 C 9.54908 12.2539 8.8495799 11.5551 7.875 11.375 C 7.7267187 11.347587 7.5840444 11.339621 7.4375 11.34375 z M 15.46875 12.125 C 14.80391 12.125 14.67847 12.1214 14.4375 12.25 C 13.77106 12.6056 13.3119 13.2551 13.25 13.9375 C 13.208 14.4007 13.3067 14.6177 13.78125 15.1875 C 13.98356 15.4304 14.27278 15.79915 14.4375 16.03125 C 14.61602 16.28265 14.818 16.5085 14.9375 16.5625 C 15.18259 16.6743 15.77323 16.651 16.21875 16.5 C 17.13883 16.1882 17.79915 15.1552 17.71875 14.1875 C 17.65795 13.4557 17.17 12.6486 16.5625 12.3125 C 16.2388 12.135 16.1851 12.125 15.46875 12.125 z M 11.625 15.1875 C 11.03957 15.1875 10.93165 15.19385 10.625 15.34375 C 10.43593 15.43625 10.22805 15.562 10.15625 15.625 C 9.9054599 15.846 9.5625 16.3532 9.5625 16.5 C 9.5625 16.5814 9.66399 16.8286 9.78125 17.0625 C 10.01207 17.523 10.15565 18.05125 10.21875 18.59375 C 10.30193 19.30895 10.39129 19.447 10.9375 19.625 C 11.10221 19.678 11.4105 19.6995 11.71875 19.6875 C 12.12994 19.6721 12.28165 19.64135 12.65625 19.46875 C 13.37965 19.13525 13.77415 18.55015 13.84375 17.71875 C 13.92765 16.71615 13.44691 15.79535 12.59375 15.34375 C 12.31313 15.19535 12.21429 15.1875 11.625 15.1875 z M 7.0625 16.53125 C 5.70345 16.60535 4.9305 17.44165 4.9375 18.84375 C 4.94054 19.41465 5.01619 19.71025 5.28125 20.09375 C 5.50157 20.41255 6.0726 20.8765 6.40625 21 C 6.7601 21.1311 7.54692 21.08055 8 20.90625 C 8.9898299 20.52545 9.55237 19.5343 9.375 18.5 C 9.22382 17.6184 8.7027299 16.93375 7.96875 16.65625 C 7.65438 16.53425 7.51356 16.50625 7.0625 16.53125 z "
     id="path3837" />
  <path
     style="opacity:0.2;fill:#919191;fill-opacity:1;stroke-width:1;stroke-miterlimit:4;stroke-dasharray:none"
     d="M 9.375,5.78125 C 8.6979165,6.0625 8.6458335,6.4895834 9.21875,7.0625 9.353794,7.090448 9.494003,7.119307 9.6875,7.1875 10.44329,7.4539 11.259,8.38415 11.25,8.96875 11.2475,9.12635 10.91658,9.3827 10.53125,9.5625 c -0.38534,0.1797 -0.83213,0.55615 -1,0.84375 C 9.1941,10.98375 9.17985,11.0036 8.75,10.75 8.5852,10.6528 8.10608,10.55425 7.6875,10.53125 7.497905,10.520933 7.345167,10.49251 7.21875,10.46875 6.6061829,10.721386 6.4671259,11.028659 6.9375,11.40625 7.844151,11.181212 8.900275,11.47174 9.5,12.4375 c 0.5055,0.8141 0.36307,2.13085 -0.28125,2.78125 -0.42088,0.425 -0.57982,0.46875 -1.6875,0.46875 -0.581728,0 -1.099112,-0.06233 -1.34375,-0.125 C 5.7648273,16.046489 5.59648,16.462005 6.25,16.65625 6.535427,16.558741 6.882485,16.5 7.25,16.5 c 1.648807,0 2.471915,1.695414 2.09375,3.03125 0.3760889,0.379307 0.74645,0.699425 1,-0.1875 -0.095,-0.147437 -0.1133,-0.39615 -0.15625,-0.8125 -0.05075,-0.4918 -0.25317,-1.1258 -0.4375,-1.4375 -0.32058,-0.5422 -0.3264,-0.6068 -0.03125,-1.0625 0.60776,-0.9385 2.07616,-1.2335 3.0625,-0.625 0.566165,0.3493 0.930913,0.935663 1.0625,1.5625 0.665113,0.377385 0.92855,0.174572 0.84375,-0.53125 C 14.582259,16.336529 14.505171,16.207299 14.375,16 14.14334,15.6311 13.76957,15.15615 13.5625,14.96875 12.85621,14.32955 13.21948,12.9285 14.25,12.3125 c 0.362487,-0.216796 0.916385,-0.287206 1.4375,-0.25 0.354712,-0.793409 0.02524,-1.182531 -0.53125,-1.4375 C 14.864154,10.65277 14.595116,10.482115 14.25,10.125 13.93308,9.797 13.52769,9.46525 13.34375,9.40625 13.0996,9.32785 13,9.1442 13,8.6875 13,7.7517 12.78499,7.45625 11.5625,6.90625 10.94998,6.63065 10.24305,6.26485 10,6.09375 9.868032,6.0008599 9.64112,5.9000223 9.375,5.78125 z m 2.53125,2.375 c 0.0194,0.00747 0.02971,0.029325 0.0625,0.0625 0.10248,0.104 0.1675,0.3085 0.125,0.4375 -0.04413,0.134 -0.125,0.02305 -0.1875,-0.21875 -0.05766,-0.223275 -0.0582,-0.303675 0,-0.28125 z M 12.125,9.9375 c 0.630706,0.0326 1.23906,0.33575 1.6875,0.875 l 0.46875,0.53125 -0.625,0.40625 c -0.59636,0.41 -1.34375,1.68775 -1.34375,2.28125 0,0.2383 -0.18456,0.3125 -0.8125,0.3125 -0.43752,0 -0.8035,-0.0375 -0.8125,-0.0625 C 10.6783,14.25665 10.6554,13.9188 10.625,13.5 10.59463,13.0812 10.39114,12.44295 10.1875,12.09375 9.7139,11.28165 9.7208,11.2553 10.34375,10.625 10.828995,10.13405 11.494294,9.9049 12.125,9.9375 z"
     id="path3795"
     inkscape:connector-curvature="0"
     sodipodi:nodetypes="ccccccccccccsccscccccccccscccccsccccccccscccssccccs" />
  <g
     id="g3853"
     transform="translate(2,-1)">
    <rect
       ry="1.34375"
       y="9"
       x="15"
       height="7"
       width="3"
       id="rect3833"
       style="fill:url(#linearGradient3857);fill-opacity:1;stroke:none" />
    <rect
       style="fill:url(#linearGradient3859);fill-opacity:1;stroke:none"
       id="rect3849"
       width="3"
       height="3"
       x="15"
       y="17"
       ry="1.34375" />
  </g>
</svg>
