<?xml version="1.0" encoding="UTF-8" standalone="no"?>
<!-- Created with Inkscape (http://www.inkscape.org/) -->

<svg
   xmlns:dc="http://purl.org/dc/elements/1.1/"
   xmlns:cc="http://creativecommons.org/ns#"
   xmlns:rdf="http://www.w3.org/1999/02/22-rdf-syntax-ns#"
   xmlns:svg="http://www.w3.org/2000/svg"
   xmlns="http://www.w3.org/2000/svg"
   xmlns:sodipodi="http://sodipodi.sourceforge.net/DTD/sodipodi-0.dtd"
   xmlns:inkscape="http://www.inkscape.org/namespaces/inkscape"
   version="1.1"
   width="24"
   height="24"
   id="svg3869"
   inkscape:version="0.48.0 r9654"
   sodipodi:docname="vineyard-panel-idle.svg">
  <sodipodi:namedview
     pagecolor="#ffffff"
     bordercolor="#666666"
     borderopacity="1"
     objecttolerance="10"
     gridtolerance="10"
     guidetolerance="10"
     inkscape:pageopacity="0"
     inkscape:pageshadow="2"
     inkscape:window-width="877"
     inkscape:window-height="782"
     id="namedview14"
     showgrid="false"
     inkscape:zoom="11.875"
     inkscape:cx="10.484211"
     inkscape:cy="11.578947"
     inkscape:window-x="1"
     inkscape:window-y="24"
     inkscape:window-maximized="0"
     inkscape:current-layer="svg3869" />
  <defs
     id="defs3871" />
  <metadata
     id="metadata3874">
    <rdf:RDF>
      <cc:Work
         rdf:about="">
        <dc:format>image/svg+xml</dc:format>
        <dc:type
           rdf:resource="http://purl.org/dc/dcmitype/StillImage" />
        <dc:title />
      </cc:Work>
    </rdf:RDF>
  </metadata>
  <path
     style="fill:#ffffff;fill-opacity:0.29803923;stroke-width:1;stroke-miterlimit:4;stroke-dasharray:none"
     d="M 12.6875 3 C 12.28715 3.0461813 11.465108 3.21655 10.59375 3.4375 C 8.5592999 3.9532 6.80975 4.56265 6.90625 4.71875 C 6.97506 4.83005 7.4276101 5.02535 8.3125 5.34375 C 8.78067 5.51225 9.36718 5.7429 9.625 5.875 C 9.88281 6.0072 10.62812 6.4148 11.28125 6.75 C 12.64459 7.4496 12.89093 7.6164 13 8.125 C 13.0384 8.3043 13.0625 8.5874 13.0625 8.75 C 13.0625 9.1001 13.15332 9.30415 13.46875 9.46875 C 13.59539 9.53485 13.91732 9.78615 14.1875 10.03125 C 14.68348 10.48125 14.87086 10.59375 15.125 10.59375 C 15.27918 10.59375 15.74407 10.31905 16.28125 9.90625 C 16.81587 9.49585 16.97014 9.46305 17.3125 9.59375 C 17.46779 9.65305 18.01887 9.977 18.5625 10.3125 C 19.10613 10.648 19.64051 10.953 19.75 11 C 20.00345 11.1076 20.08425 11.03225 20.03125 10.71875 C 19.92659 10.09925 18.38562 7.41015 17.59375 6.46875 C 16.85924 5.59555 16.69735 5.55105 15.65625 5.78125 C 14.85602 5.95785 14.71783 5.9324 14.53125 5.6875 C 14.44614 5.5757 14.15718 5.06405 13.875 4.53125 C 13.3734 3.58405 13.05935 3.075 12.9375 3 C 12.91365 2.98525 12.82095 2.9846062 12.6875 3 z M 8.90625 7.09375 C 8.7974933 7.0967455 8.6638712 7.0986 8.5625 7.125 C 7.6098901 7.3732 7.04502 7.87125 6.78125 8.71875 C 6.59844 9.30605 6.67471 10.15165 6.90625 10.34375 C 6.95515 10.38435 7.35141 10.46925 7.78125 10.53125 C 8.26745 10.60125 8.63326 10.67 8.78125 10.75 C 8.91208 10.8209 9.05205 10.90625 9.09375 10.90625 C 9.13544 10.90855 9.30153 10.73145 9.4375 10.53125 C 9.73588 10.09185 9.9778199 9.8667 10.5 9.5625 C 11.24397 9.1292 11.3261 8.9434 11 8.375 C 10.553347 7.5965125 9.6675466 7.0727814 8.90625 7.09375 z M 12 10 C 11.35167 9.9999 10.93721 10.1601 10.4375 10.625 C 9.8356699 11.1849 9.7886899 11.30915 10.15625 11.96875 C 10.38913 12.38675 10.60275 13.0018 10.65625 13.5 C 10.74059 14.2853 10.71255 14.25125 10.96875 14.28125 C 11.22505 14.31225 12.02387 14.26975 12.15625 14.21875 C 12.20248 14.20105 12.2756 14.0525 12.3125 13.875 C 12.48512 13.0445 13.17028 12.04595 13.875 11.59375 C 14.04424 11.48515 14.1875 11.3465 14.1875 11.3125 C 14.1875 11.2784 13.98022 11.0509 13.75 10.8125 C 13.46639 10.5187 13.21395 10.3236 12.9375 10.1875 C 12.57492 10.0085 12.47343 10.0001 12 10 z M 7.4375 11.34375 C 6.4116894 11.37265 5.4732462 12.158062 5.3125 13.1875 C 5.19059 13.9683 5.46666 15.00835 5.90625 15.40625 C 5.97655 15.46985 6.19252 15.56575 6.375 15.59375 C 6.55748 15.62175 7.14062 15.635 7.65625 15.625 C 8.6854599 15.6103 8.79919 15.5678 9.1875 15.1875 C 9.62459 14.7595 9.84615 13.8884 9.71875 13.1875 C 9.54908 12.2539 8.8495799 11.5551 7.875 11.375 C 7.7267187 11.347587 7.5840444 11.339621 7.4375 11.34375 z M 15.46875 12.125 C 14.80391 12.125 14.67847 12.1214 14.4375 12.25 C 13.77106 12.6056 13.3119 13.2551 13.25 13.9375 C 13.208 14.4007 13.3067 14.6177 13.78125 15.1875 C 13.98356 15.4304 14.27278 15.79915 14.4375 16.03125 C 14.61602 16.28265 14.818 16.5085 14.9375 16.5625 C 15.18259 16.6743 15.77323 16.651 16.21875 16.5 C 17.13883 16.1882 17.79915 15.1552 17.71875 14.1875 C 17.65795 13.4557 17.17 12.6486 16.5625 12.3125 C 16.2388 12.135 16.1851 12.125 15.46875 12.125 z M 11.625 15.1875 C 11.03957 15.1875 10.93165 15.19385 10.625 15.34375 C 10.43593 15.43625 10.22805 15.562 10.15625 15.625 C 9.9054599 15.846 9.5625 16.3532 9.5625 16.5 C 9.5625 16.5814 9.66399 16.8286 9.78125 17.0625 C 10.01207 17.523 10.15565 18.05125 10.21875 18.59375 C 10.30193 19.30895 10.39129 19.447 10.9375 19.625 C 11.10221 19.678 11.4105 19.6995 11.71875 19.6875 C 12.12994 19.6721 12.28165 19.64135 12.65625 19.46875 C 13.37965 19.13525 13.77415 18.55015 13.84375 17.71875 C 13.92765 16.71615 13.44691 15.79535 12.59375 15.34375 C 12.31313 15.19535 12.21429 15.1875 11.625 15.1875 z M 7.0625 16.53125 C 5.70345 16.60535 4.9305 17.44165 4.9375 18.84375 C 4.94054 19.41465 5.01619 19.71025 5.28125 20.09375 C 5.50157 20.41255 6.0726 20.8765 6.40625 21 C 6.7601 21.1311 7.54692 21.08055 8 20.90625 C 8.9898299 20.52545 9.55237 19.5343 9.375 18.5 C 9.22382 17.6184 8.7027299 16.93375 7.96875 16.65625 C 7.65438 16.53425 7.51356 16.50625 7.0625 16.53125 z "
     id="path3837" />
</svg>
