<?xml version="1.0" encoding="UTF-8" standalone="no"?>
<!-- Created with Inkscape (http://www.inkscape.org/) -->

<svg
   xmlns:dc="http://purl.org/dc/elements/1.1/"
   xmlns:cc="http://creativecommons.org/ns#"
   xmlns:rdf="http://www.w3.org/1999/02/22-rdf-syntax-ns#"
   xmlns:svg="http://www.w3.org/2000/svg"
   xmlns="http://www.w3.org/2000/svg"
   xmlns:xlink="http://www.w3.org/1999/xlink"
   xmlns:sodipodi="http://sodipodi.sourceforge.net/DTD/sodipodi-0.dtd"
   xmlns:inkscape="http://www.inkscape.org/namespaces/inkscape"
   version="1.1"
   width="16"
   height="16"
   id="svg3869"
   inkscape:version="0.48.0 r9654"
   sodipodi:docname="vineyard-panel-idle.svg">
  <sodipodi:namedview
     pagecolor="#414141"
     bordercolor="#666666"
     borderopacity="1"
     objecttolerance="10"
     gridtolerance="10"
     guidetolerance="10"
     inkscape:pageopacity="0.43921569"
     inkscape:pageshadow="2"
     inkscape:window-width="919"
     inkscape:window-height="681"
     id="namedview14"
     showgrid="true"
     inkscape:zoom="22.627417"
     inkscape:cx="6.6827793"
     inkscape:cy="6.4773261"
     inkscape:window-x="1"
     inkscape:window-y="24"
     inkscape:window-maximized="0"
     inkscape:current-layer="svg3869">
    <inkscape:grid
       type="xygrid"
       id="grid4199"
       empspacing="5"
       visible="true"
       enabled="true"
       snapvisiblegridlinesonly="true" />
  </sodipodi:namedview>
  <defs
     id="defs3871">
    <linearGradient
       inkscape:collect="always"
       id="linearGradient4278">
      <stop
         style="stop-color:#e9e9e9;stop-opacity:1"
         offset="0"
         id="stop4280" />
      <stop
         style="stop-color:#fbfbfb;stop-opacity:0.25"
         offset="1"
         id="stop4282" />
    </linearGradient>
    <linearGradient
       id="linearGradient4270">
      <stop
         style="stop-color:#000000;stop-opacity:0.851"
         offset="0"
         id="stop4272" />
      <stop
         style="stop-color:#0a0a0a;stop-opacity:0.5;"
         offset="1"
         id="stop4274" />
    </linearGradient>
    <linearGradient
       inkscape:collect="always"
       xlink:href="#linearGradient4270"
       id="linearGradient4276"
       x1="10"
       y1="3"
       x2="10"
       y2="15"
       gradientUnits="userSpaceOnUse" />
    <linearGradient
       inkscape:collect="always"
       xlink:href="#linearGradient4278"
       id="linearGradient4284"
       x1="14"
       y1="1"
       x2="14"
       y2="15"
       gradientUnits="userSpaceOnUse" />
  </defs>
  <metadata
     id="metadata3874">
    <rdf:RDF>
      <cc:Work
         rdf:about="">
        <dc:format>image/svg+xml</dc:format>
        <dc:type
           rdf:resource="http://purl.org/dc/dcmitype/StillImage" />
        <dc:title></dc:title>
      </cc:Work>
    </rdf:RDF>
  </metadata>
  <path
     style="opacity:0.20000000000000001;fill:url(#linearGradient4276);fill-opacity:1;stroke-width:1;stroke-miterlimit:4;stroke-dasharray:none"
     d="M 8.53125 1.90625 C 8.4612014 1.8629287 7.6655707 2.033687 6.8125 2.25 C 5.3186842 2.628658 4.0541439 3.072882 4.125 3.1875 C 4.1755244 3.2692233 4.5065106 3.4224615 5.15625 3.65625 C 5.5000086 3.7799729 5.9356928 3.9342542 6.125 4.03125 C 6.3142995 4.1283191 6.864183 4.4101258 7.34375 4.65625 C 8.3447964 5.1699384 8.5136628 5.3140552 8.59375 5.6875 C 8.6219496 5.8191529 8.625 6.0368592 8.625 6.15625 C 8.625 6.4133146 8.7058917 6.5353909 8.9375 6.65625 C 9.0304864 6.7047847 9.2703676 6.9137826 9.46875 7.09375 C 9.8329284 7.4241671 9.969646 7.5 10.15625 7.5 C 10.269459 7.5 10.60557 7.3031026 11 7 C 11.39255 6.6986595 11.49862 6.6540322 11.75 6.75 C 11.864024 6.7935417 12.288334 7.0349058 12.6875 7.28125 C 13.086665 7.5275942 13.482105 7.7467359 13.5625 7.78125 C 13.748641 7.8602561 13.78891 7.8239401 13.75 7.59375 C 13.673152 7.1388756 12.550188 5.1599825 11.96875 4.46875 C 11.429428 3.8275936 11.295689 3.7997235 10.53125 3.96875 C 9.9436732 4.0984204 9.8557485 4.0860703 9.71875 3.90625 C 9.6562574 3.8241597 9.4259439 3.4224638 9.21875 3.03125 C 8.8504449 2.3357587 8.62072 1.96132 8.53125 1.90625 z M 5.71875 4.875 C 5.6387151 4.8772044 5.5433499 4.886822 5.46875 4.90625 C 4.7677168 5.0889024 4.3503605 5.4388179 4.15625 6.0625 C 4.0217186 6.4946987 4.0796079 7.1086316 4.25 7.25 C 4.2859859 7.2798778 4.5586773 7.3606233 4.875 7.40625 C 5.2327984 7.4577633 5.5160931 7.5036273 5.625 7.5625 C 5.7212788 7.614673 5.844313 7.65625 5.875 7.65625 C 5.90568 7.6579429 5.9936887 7.5535788 6.09375 7.40625 C 6.3133302 7.0828923 6.5219734 6.9113632 6.90625 6.6875 C 7.4537436 6.368631 7.4899797 6.2307901 7.25 5.8125 C 6.9213051 5.2396049 6.2789943 4.8595691 5.71875 4.875 z M 7.90625 6.875 C 7.4225346 6.8749254 7.0915819 6.9968906 6.71875 7.34375 C 6.2697276 7.761489 6.2570151 7.8516255 6.53125 8.34375 C 6.705001 8.6556181 6.8663371 9.128295 6.90625 9.5 C 6.969176 10.085909 6.9651002 10.071366 7.15625 10.09375 C 7.3474745 10.11688 7.932482 10.10055 8.03125 10.0625 C 8.0657423 10.049295 8.09747 9.9136822 8.125 9.78125 C 8.2537912 9.1616179 8.7867114 8.3998839 9.3125 8.0625 C 9.4387696 7.981474 9.53125 7.900365 9.53125 7.875 C 9.53125 7.8495582 9.3905163 7.6778692 9.21875 7.5 C 9.0071497 7.2807977 8.8000079 7.1327936 8.59375 7.03125 C 8.3232305 6.8976988 8.2594745 6.8750746 7.90625 6.875 z M 4.6875 7.875 C 3.9360147 7.8961714 3.2427589 8.4646082 3.125 9.21875 C 3.0356914 9.7907467 3.2404665 10.552257 3.5625 10.84375 C 3.6140002 10.890342 3.7725694 10.948237 3.90625 10.96875 C 4.0399307 10.98929 4.4660113 11.0073 4.84375 11 C 5.5977254 10.98923 5.6842831 10.966099 5.96875 10.6875 C 6.2889518 10.373957 6.46833 9.7322138 6.375 9.21875 C 6.2507036 8.5348161 5.7139549 8.0381873 5 7.90625 C 4.8913726 7.8861683 4.794855 7.8719755 4.6875 7.875 z M 9.84375 8.40625 C 9.7387939 8.4211559 9.6826572 8.4525523 9.59375 8.5 C 9.1019758 8.7624015 8.7644281 9.2464486 8.71875 9.75 C 8.6877577 10.0918 8.7435738 10.235788 9.09375 10.65625 C 9.2430366 10.835489 9.4722007 11.10998 9.59375 11.28125 C 9.7254815 11.46676 9.8805695 11.64765 9.96875 11.6875 C 10.149604 11.770008 10.577494 11.736428 10.90625 11.625 C 11.585186 11.394919 12.09058 10.620328 12.03125 9.90625 C 11.986385 9.3662463 11.604531 8.7792624 11.15625 8.53125 C 10.917388 8.4002712 10.872352 8.40625 10.34375 8.40625 C 10.098453 8.40625 9.9487061 8.3913441 9.84375 8.40625 z M 7.625 10.53125 C 7.1881559 10.53125 7.1038207 10.544391 6.875 10.65625 C 6.7339172 10.725273 6.584829 10.82799 6.53125 10.875 C 6.3441121 11.039909 6.09375 11.421703 6.09375 11.53125 C 6.09375 11.59199 6.1625013 11.762967 6.25 11.9375 C 6.4222364 12.281122 6.5466651 12.65769 6.59375 13.0625 C 6.6558183 13.596178 6.7174213 13.710928 7.125 13.84375 C 7.2479054 13.88326 7.457486 13.91525 7.6875 13.90625 C 7.9943273 13.894759 8.126726 13.847536 8.40625 13.71875 C 8.9460465 13.469894 9.229314 13.057885 9.28125 12.4375 C 9.3438561 11.689366 8.9803729 10.993232 8.34375 10.65625 C 8.134353 10.545503 8.064724 10.53125 7.625 10.53125 z M 4.40625 11.53125 C 3.4213689 11.58495 2.86992 12.202673 2.875 13.21875 C 2.8772031 13.632473 2.9329155 13.847084 3.125 14.125 C 3.2846623 14.35603 3.6957095 14.691752 3.9375 14.78125 C 4.1939294 14.876249 4.7654103 14.845068 5.09375 14.71875 C 5.8110634 14.442792 6.2222865 13.71829 6.09375 12.96875 C 5.9841923 12.329869 5.5944032 11.8261 5.0625 11.625 C 4.8346814 11.53664 4.7331256 11.51313 4.40625 11.53125 z "
     id="path3837" />
</svg>
