<?xml version="1.0" encoding="UTF-8" standalone="no"?>
<!-- Created with Inkscape (http://www.inkscape.org/) -->

<svg
   xmlns:dc="http://purl.org/dc/elements/1.1/"
   xmlns:cc="http://creativecommons.org/ns#"
   xmlns:rdf="http://www.w3.org/1999/02/22-rdf-syntax-ns#"
   xmlns:svg="http://www.w3.org/2000/svg"
   xmlns="http://www.w3.org/2000/svg"
   xmlns:sodipodi="http://sodipodi.sourceforge.net/DTD/sodipodi-0.dtd"
   xmlns:inkscape="http://www.inkscape.org/namespaces/inkscape"
   version="1.0"
   width="16"
   height="16"
   id="svg2"
   inkscape:version="0.47 r22583"
   sodipodi:docname="audio-volume-high-panel.svg"
   style="display:inline">
  <metadata
     id="metadata6175">
    <rdf:RDF>
      <cc:Work
         rdf:about="">
        <dc:format>image/svg+xml</dc:format>
        <dc:type
           rdf:resource="http://purl.org/dc/dcmitype/StillImage" />
        <dc:title></dc:title>
      </cc:Work>
    </rdf:RDF>
  </metadata>
  <sodipodi:namedview
     pagecolor="#ffffff"
     bordercolor="#666666"
     borderopacity="1"
     objecttolerance="10"
     gridtolerance="10"
     guidetolerance="10"
     inkscape:pageopacity="0"
     inkscape:pageshadow="2"
     inkscape:window-width="1280"
     inkscape:window-height="1000"
     id="namedview6173"
     showgrid="true"
     inkscape:snap-global="false"
     showguides="true"
     inkscape:guide-bbox="true"
     inkscape:zoom="22.627417"
     inkscape:cx="13.810343"
     inkscape:cy="5.1693937"
     inkscape:window-x="0"
     inkscape:window-y="24"
     inkscape:window-maximized="1"
     inkscape:current-layer="svg2">
    <inkscape:grid
       type="xygrid"
       id="grid6272" />
  </sodipodi:namedview>
  <defs
     id="defs4">
    <inkscape:perspective
       sodipodi:type="inkscape:persp3d"
       inkscape:vp_x="0 : 8 : 1"
       inkscape:vp_y="0 : 1000 : 0"
       inkscape:vp_z="16 : 8 : 1"
       inkscape:persp3d-origin="8 : 5.3333333 : 1"
       id="perspective6177" />
    <inkscape:perspective
       id="perspective6266"
       inkscape:persp3d-origin="0.5 : 0.33333333 : 1"
       inkscape:vp_z="1 : 0.5 : 1"
       inkscape:vp_y="0 : 1000 : 0"
       inkscape:vp_x="0 : 0.5 : 1"
       sodipodi:type="inkscape:persp3d" />
  </defs>
  <path
     style="fill:#606060;fill-opacity:1;display:inline"
     d="M 6.90625,1.03175 C 6.4281623,1.0636225 6.0380976,1.3967898 5.6875,1.90675 5.3369024,2.1936025 5.2415339,1.9489562 4.875,2.188 4.5084662,2.4270439 4.5857902,3.2116368 4.1875,3.7505 3.6456673,4.4835678 3.6946824,6.3230942 4.65625,6.28175 4.7885663,6.2760609 4.9033837,6.3102214 5,6.3755 4.7758817,6.6291277 4.65625,6.9803025 4.65625,7.34425 c 0,0.2124934 0.042081,0.3810936 0.125,0.5625 -0.4926412,0.2270577 -0.84375,0.7344658 -0.84375,1.3125 0,0.1980305 0.052422,0.3909071 0.125,0.5625 C 3.4452643,9.9419066 3,10.489415 3,11.15675 3,11.636683 3.2317625,12.052645 3.59375,12.313 3.58501,12.37701 3.5625,12.434087 3.5625,12.5005 c 0,0.693107 0.5026803,1.27251 1.15625,1.40625 -0.082919,0.181406 -0.125,0.381257 -0.125,0.59375 0,0.792122 0.645378,1.4375 1.4375,1.4375 0.7039743,0 1.2846546,-0.518607 1.40625,-1.1875 0.610613,-0.112363 1.0485599,-0.596304 1.125,-1.21875 0.093367,0.01911 0.1822347,0 0.28125,0 0.792122,0 1.4375,-0.614128 1.4375,-1.40625 0,-0.174733 -0.03654,-0.345146 -0.09375,-0.5 0.792122,0 1.4375,-0.645378 1.4375,-1.4375 0,-0.2592195 -0.06721,-0.4776513 -0.1875,-0.6875 0.407674,-0.1417095 0.726888,-0.4728684 0.875,-0.875 0.660785,0.019416 1.275663,0.042777 1.5,-0.0625 0.619535,-0.2907368 0.56416,-1.8121701 0.53125,-2.4375 -0.03187,-0.6055777 0.684985,-0.6839555 0.5625,-1.34375 -0.122486,-0.6597945 -0.711903,-1.4581673 -1.0625,-2 -0.478088,-0.4462151 -1.271912,-0.9375 -1.75,-0.9375 -0.573705,0 -1.25,0.90625 -1.25,0.90625 0,0 -0.75137,0.799858 -1.03125,0.71875 -0.3094005,-0.089663 -0.90625,-1.5625 -0.90625,-1.5625 -0.6553916,-0.659794 -1.3750155,-0.5562749 -2,-0.875 z"
     id="path6440" />
</svg>
