<?xml version="1.0" encoding="UTF-8" standalone="no"?>
<!-- Created with Inkscape (http://www.inkscape.org/) -->

<svg
   xmlns:dc="http://purl.org/dc/elements/1.1/"
   xmlns:cc="http://creativecommons.org/ns#"
   xmlns:rdf="http://www.w3.org/1999/02/22-rdf-syntax-ns#"
   xmlns:svg="http://www.w3.org/2000/svg"
   xmlns="http://www.w3.org/2000/svg"
   xmlns:sodipodi="http://sodipodi.sourceforge.net/DTD/sodipodi-0.dtd"
   xmlns:inkscape="http://www.inkscape.org/namespaces/inkscape"
   version="1.1"
   width="24"
   height="24"
   id="svg3869"
   inkscape:version="0.48.0 r9654"
   sodipodi:docname="vineyard-panel-idle.svg.2011_01_18_18_05_34.0.svg">
  <sodipodi:namedview
     pagecolor="#ffffff"
     bordercolor="#666666"
     borderopacity="1"
     objecttolerance="10"
     gridtolerance="10"
     guidetolerance="10"
     inkscape:pageopacity="0"
     inkscape:pageshadow="2"
     inkscape:window-width="640"
     inkscape:window-height="480"
     id="namedview14"
     showgrid="false"
     inkscape:zoom="2.96875"
     inkscape:cx="-2.8667314"
     inkscape:cy="22.473553"
     inkscape:window-x="1"
     inkscape:window-y="24"
     inkscape:window-maximized="0"
     inkscape:current-layer="svg3869" />
  <defs
     id="defs3871" />
  <metadata
     id="metadata3874">
    <rdf:RDF>
      <cc:Work
         rdf:about="">
        <dc:format>image/svg+xml</dc:format>
        <dc:type
           rdf:resource="http://purl.org/dc/dcmitype/StillImage" />
        <dc:title></dc:title>
      </cc:Work>
    </rdf:RDF>
  </metadata>
  <path
     inkscape:connector-curvature="0"
     style="fill:#3a3935;fill-opacity:1;stroke-width:1;stroke-miterlimit:4;stroke-dasharray:none;opacity:0.6"
     id="path3819"
     d="m 6.230781,21.7682 c -1.34279,-0.4842 -2.22803,-1.7578 -2.23078,-3.2093 -9.9e-4,-0.5754 0.73289,-1.9699 1.16591,-2.215 0.2406,-0.1363 0.21857,-0.2423 -0.17105,-0.8232 -1.02149,-1.523 -0.62311,-3.6725 0.83848,-4.5243 0.20155,-0.1174 0.21232,-0.316 0.0581,-1.0708 C 5.730611,9.1388 5.750311,8.8908 6.022081,8.281 6.380401,7.477 6.842721,6.9825 7.613091,6.5792 8.079671,6.3349 8.097971,6.2951 7.789871,6.1944 7.116191,5.9743 6.028411,5.5052 5.811021,5.3411 5.443351,5.0636 5.561151,4.3728 6.041341,3.9906 c 0.77765,-0.6189 5.408,-1.9877 6.73406,-1.9907 0.68664,0 1.4638,0.8257 1.92594,2.05 0.26715,0.7078 0.37276,0.82 0.68463,0.7273 1.55607,-0.4624 2.13912,-0.1722 3.47266,1.7281 1.66383,2.3711 2.61354,4.8074 2.11224,5.4186 -0.43999,0.5364 -1.34498,0.2822 -2.94989,-0.8285 -0.87225,-0.6037 -1.13236,-0.6309 -1.5516,-0.1622 -0.30158,0.3372 -0.29656,0.3533 0.14518,0.4655 0.64029,0.1626 1.64741,1.3511 1.87751,2.2157 0.27135,1.0196 -0.0385,2.0614 -0.86039,2.893 -0.65877,0.6665 -1.89584,1.159 -2.50589,0.9976 -0.23745,-0.063 -0.33756,0.057 -0.42002,0.5014 -0.34131,1.8408 -2.38353,3.0167 -4.1543,2.3922 -0.54141,-0.191 -0.5990101,-0.1677 -1.0966001,0.4431 -0.36846,0.4522 -0.79566,0.7259 -1.4315799,0.917 -1.06668,0.3205 -0.93233,0.3197 -1.79246,0.01 l 0,0 z m 1.92431,-0.889 c 2.16614,-0.9158 1.4392699,-4.3929 -0.91832,-4.3929 -1.51728,0 -2.35387,0.8502 -2.35387,2.392 0,0.6059 0.11448,0.9377 0.47172,1.3673 0.75666,0.9098 1.66231,1.1147 2.80047,0.6336 z m 4.72398,-1.4698 c 1.3949,-0.7109 1.33835,-3.1198 -0.094,-4.0035 -0.98634,-0.6085 -2.44899,-0.3057 -3.0567501,0.6328 -0.29515,0.4557 -0.29398,0.5012 0.0266,1.0434 0.18433,0.3117 0.3766701,0.9693 0.4274201,1.4611 0.0859,0.8327 0.13493,0.9087 0.71099,1.1035 0.66119,0.2235 1.21023,0.1579 1.98576,-0.2373 l 0,0 z m 3.6877,-3.0212 c 0.68983,-0.3609 1.21935,-1.2577 1.22018,-2.0665 7.6e-4,-0.7464 -0.59815,-1.7484 -1.24208,-2.0781 -0.61187,-0.3132 -1.70607,-0.2827 -2.28576,0.064 -1.03052,0.616 -1.3975,2.0365 -0.69121,2.6757 0.20707,0.1874 0.56604,0.6425 0.7977,1.0114 0.35692,0.5684 0.5167,0.6708 1.04651,0.6708 0.34391,0 0.8635,-0.1247 1.15466,-0.277 l 0,0 z M 9.2332609,15.2055 c 0.64432,-0.6504 0.7689901,-1.9655 0.26349,-2.7796 -1.2127899,-1.953 -4.2602899,-1.1551 -4.2602899,1.1155 0,0.8578 0.35374,1.7555 0.78689,1.997 0.14112,0.079 0.81499,0.1431 1.49749,0.1431 1.1076799,0 1.2915399,-0.051 1.7124199,-0.476 l 0,0 z m 3.0742601,-1.1668 c 0,-0.5935 0.75604,-1.8658 1.3524,-2.2758 l 0.60748,-0.4176 -0.45539,-0.5476 c -0.89688,-1.0785 -2.48602,-1.1606 -3.45651,-0.1787 -0.6229501,0.6303 -0.6261901,0.6616 -0.15259,1.4737 0.20364,0.3492 0.39508,0.9776 0.42545,1.3964 0.0304,0.4188 0.0626,0.7816 0.0718,0.8062 0.009,0.025 0.37446,0.045 0.81198,0.045 0.62794,0 0.79548,-0.063 0.79548,-0.3013 z m 7.77818,-3.2096 c 0,-0.5199 -1.61762,-3.4122 -2.44119,-4.3647 -0.85982,-0.9945 -0.87259,-0.9976 -2.5415,-0.6051 -0.4479,0.1053 -0.51603,0.029 -1.19914,-1.3458 -0.39835,-0.8016 -0.82597,-1.497 -0.95027,-1.5452 -0.49141,-0.1908 -6.12616,1.3786 -6.12616,1.7062 0,0.1548 0.48367,0.3705 1.8561699,0.8279 0.48614,0.1621 1.08275,0.4346 1.3258301,0.6057 0.24305,0.1711 0.94308,0.5366 1.5556,0.8122 1.22249,0.55 1.44959,0.826 1.44959,1.7618 0,0.4567 0.0903,0.6547 0.33445,0.7331 0.18394,0.059 0.59373,0.3757 0.91065,0.7037 0.66817,0.6914 1.01632,0.6731 1.89884,-0.1 0.31937,-0.2797 0.71713,-0.5068 0.88389,-0.5047 0.16677,0 0.85319,0.3643 1.52538,0.8049 1.34489,0.8815 1.51786,0.9395 1.51786,0.5096 z M 9.5313209,10.4189 c 0.16787,-0.2876 0.6204901,-0.6699 1.0058301,-0.8496 0.38533,-0.1798 0.70265,-0.4558 0.70516,-0.6134 0.009,-0.5846 -0.79222,-1.4984 -1.5480101,-1.7648 -0.65574,-0.2311 -0.83532,-0.2311 -1.4910599,0 -0.95047,0.335 -1.55361,1.1958 -1.54986,2.212 0.004,0.9593 0.11568,1.0834 1.02352,1.1328 0.41858,0.023 0.8958599,0.1209 1.0606599,0.2181 0.42985,0.2536 0.45661,0.2424 0.79376,-0.3351 z M 11.983751,8.2173 c -0.13117,-0.1327 -0.15418,-0.063 -0.0773,0.2347 0.0625,0.2418 0.14265,0.3229 0.18678,0.1889 0.0425,-0.129 -0.007,-0.3196 -0.10948,-0.4236 z" />
  <path
     inkscape:connector-curvature="0"
     style="fill:#19b6ee;fill-opacity:1;stroke-width:1;stroke-miterlimit:4;stroke-dasharray:none"
     id="path3837"
     d="M 6.3773006,21.051948 C 6.0342384,20.924964 5.4567339,20.463915 5.2301987,20.136122 4.9576613,19.741803 4.8730602,19.44064 4.8699344,18.853635 c -0.0072,-1.441653 0.7800722,-2.302162 2.177461,-2.378352 0.4637844,-0.02571 0.6116205,-0.01028 0.9348588,0.115159 0.7546855,0.285328 1.3028449,1.003225 1.4582897,1.909695 0.1823736,1.063477 -0.3964367,2.07174 -1.4141897,2.463282 -0.4658614,0.179217 -1.2852214,0.223225 -1.6490536,0.08843 z" />
  <path
     inkscape:connector-curvature="0"
     style="fill:#19b6ee;fill-opacity:1;stroke-width:1;stroke-miterlimit:4;stroke-dasharray:none"
     id="path3839"
     d="M 10.899579,19.750379 C 10.32129,19.561925 10.214136,19.409892 10.126071,18.652688 10.059265,18.078328 9.8991322,17.531917 9.6547562,17.044372 9.5306096,16.796736 9.4290351,16.523583 9.4290351,16.437403 c 0,-0.155422 0.3572789,-0.679387 0.6227979,-0.913366 0.07602,-0.0667 0.301928,-0.201794 0.502102,-0.299726 0.32466,-0.158704 0.438918,-0.177973 1.05873,-0.177973 0.623898,0 0.728543,0.018 1.025644,0.175114 0.903266,0.478122 1.424002,1.462529 1.335174,2.524011 -0.07369,0.880228 -0.483437,1.482116 -1.249322,1.835202 -0.3966,0.182737 -0.57669,0.225827 -1.012029,0.242131 -0.326353,0.01271 -0.63817,-0.01588 -0.812553,-0.07199 z" />
  <path
     inkscape:connector-curvature="0"
     style="fill:#19b6ee;fill-opacity:1;stroke-width:1;stroke-miterlimit:4;stroke-dasharray:none"
     id="path3841"
     d="M 6.3347023,15.669506 C 6.1450308,15.640402 5.9300601,15.561927 5.8569896,15.495821 5.4000755,15.082239 5.1030121,13.980154 5.2297266,13.168582 5.4206765,11.945717 6.6620853,11.07833 7.895085,11.306272 c 1.0129879,0.187198 1.7423936,0.897114 1.9187503,1.867507 0.1324208,0.728523 -0.1199894,1.648608 -0.574305,2.093475 -0.4036132,0.395288 -0.5157552,0.426574 -1.5855259,0.441853 -0.5359509,0.01039 -1.1296306,-0.01039 -1.3193021,-0.0395 z" />
  <path
     inkscape:connector-curvature="0"
     style="fill:#19b6ee;fill-opacity:1;stroke-width:1;stroke-miterlimit:4;stroke-dasharray:none"
     id="path3843"
     d="m 10.916521,14.41871 c -0.271211,-0.03176 -0.264097,-0.01482 -0.353379,-0.846131 -0.05663,-0.52739 -0.260349,-1.178952 -0.506874,-1.621443 -0.3890954,-0.698246 -0.365764,-0.819772 0.271327,-1.412477 0.528989,-0.492138 0.977069,-0.6735806 1.663384,-0.6734748 0.501169,1.059e-4 0.612088,0.023289 0.995912,0.2127768 0.292647,0.144074 0.574814,0.360662 0.875041,0.671675 0.243709,0.252368 0.443115,0.48854 0.443115,0.524638 0,0.03599 -0.146593,0.159741 -0.325749,0.274704 -0.74601,0.478694 -1.478544,1.549776 -1.661278,2.428935 -0.03906,0.1879 -0.111035,0.357063 -0.159974,0.3758 -0.140136,0.05399 -0.970208,0.09739 -1.241525,0.06457 z" />
  <path
     inkscape:connector-curvature="0"
     style="fill:#19b6ee;fill-opacity:1;stroke-width:1;stroke-miterlimit:4;stroke-dasharray:none"
     id="path3845"
     d="m 14.923037,16.662517 c -0.125114,-0.05654 -0.336583,-0.273994 -0.523489,-0.537205 -0.172459,-0.243003 -0.486877,-0.649755 -0.698691,-0.904066 -0.496844,-0.596569 -0.588444,-0.815283 -0.544471,-1.300243 0.06481,-0.714459 0.536168,-1.386305 1.233917,-1.758611 0.25229,-0.134641 0.373771,-0.151917 1.069845,-0.151917 0.750003,0 0.801148,0.01047 1.140055,0.196309 0.63604,0.35189 1.167749,1.201618 1.231405,1.967797 0.08418,1.013162 -0.619728,2.085792 -1.583032,2.41224 -0.466451,0.158094 -1.068935,0.192435 -1.325539,0.07538 z" />
  <path
     inkscape:connector-curvature="0"
     style="fill:#19b6ee;fill-opacity:1;stroke-width:1;stroke-miterlimit:4;stroke-dasharray:none"
     id="path3847"
     d="M 8.7796876,10.838944 C 8.625166,10.755413 8.2229441,10.660083 7.7152853,10.586994 7.2664739,10.522257 6.8574964,10.434759 6.8064381,10.392367 6.5646789,10.191788 6.5106031,9.3269308 6.7014816,8.7137098 6.9768933,7.8288047 7.5654518,7.298697 8.5601059,7.0395425 9.4068687,6.819021 10.55806,7.4101063 11.091049,8.3390739 11.431542,8.9325607 11.350883,9.1259346 10.574077,9.5783587 10.02885,9.8959848 9.7560172,10.143236 9.444468,10.602029 c -0.1419711,0.209036 -0.2937363,0.378082 -0.3372663,0.37568 -0.04354,0 -0.1909098,-0.06474 -0.3275141,-0.138765 l 0,0 z" />
  <path
     inkscape:connector-curvature="0"
     style="fill:#19b6ee;fill-opacity:1;stroke-width:1;stroke-miterlimit:4;stroke-dasharray:none"
     id="path3849"
     d="m 20.025576,11.157989 c -0.114067,-0.04897 -0.670783,-0.373902 -1.237136,-0.723425 -0.566352,-0.349523 -1.162094,-0.6859195 -1.323875,-0.7476981 -0.356669,-0.136163 -0.517388,-0.084386 -1.074354,0.3431681 -0.559633,0.430054 -1.01942,0.704568 -1.180045,0.704568 -0.264762,0 -0.459953,-0.117098 -0.976664,-0.585907 C 13.952029,9.8933502 13.613799,9.6281085 13.481866,9.5592456 13.153251,9.3877657 13.03806,9.1998253 13.03806,8.8350919 c 0,-0.1693964 -0.03281,-0.460683 -0.07282,-0.6474774 C 12.851609,7.6577561 12.602682,7.4534595 11.182357,6.7246177 10.501928,6.375407 9.725465,5.9770235 9.4568792,5.8392977 9.1882827,5.7016763 8.5694756,5.4454981 8.0817371,5.2699552 7.1598607,4.9382467 6.6956147,4.7290537 6.6239285,4.6131016 6.5233951,4.4504769 8.3466351,3.8184181 10.466121,3.2811629 c 1.210371,-0.3069136 2.342524,-0.5190237 2.441912,-0.4575576 0.126943,0.078134 0.450077,0.6083058 0.972643,1.5950968 0.293975,0.5550699 0.607046,1.10441 0.695713,1.220883 0.194379,0.2551363 0.326853,0.2642 1.160531,0.080219 1.084616,-0.2398218 1.256576,-0.1775224 2.021786,0.7321756 0.824969,0.9807486 2.432296,3.7792266 2.541331,4.4246206 0.05521,0.326603 -0.01042,0.393799 -0.274461,0.281702 l 0,0 z" />
</svg>
