<?xml version="1.0" encoding="UTF-8" standalone="no"?>
<!-- Created with Inkscape (http://www.inkscape.org/) -->

<svg
   xmlns:dc="http://purl.org/dc/elements/1.1/"
   xmlns:cc="http://creativecommons.org/ns#"
   xmlns:rdf="http://www.w3.org/1999/02/22-rdf-syntax-ns#"
   xmlns:svg="http://www.w3.org/2000/svg"
   xmlns="http://www.w3.org/2000/svg"
   version="1.1"
   width="24"
   height="24"
   id="svg3869">
  <defs
     id="defs3871" />
  <metadata
     id="metadata3874">
    <rdf:RDF>
      <cc:Work
         rdf:about="">
        <dc:format>image/svg+xml</dc:format>
        <dc:type
           rdf:resource="http://purl.org/dc/dcmitype/StillImage" />
        <dc:title></dc:title>
      </cc:Work>
    </rdf:RDF>
  </metadata>
  <g
     transform="translate(0,-1028.3622)"
     id="layer1">
    <path
       d="m 6.230781,1050.1304 c -1.34279,-0.4842 -2.22803,-1.7578 -2.23078,-3.2093 -9.9e-4,-0.5754 0.73289,-1.9699 1.16591,-2.215 0.2406,-0.1363 0.21857,-0.2423 -0.17105,-0.8232 -1.02149,-1.523 -0.62311,-3.6725 0.83848,-4.5243 0.20155,-0.1174 0.21232,-0.316 0.0581,-1.0708 -0.16083,-0.7868 -0.14113,-1.0348 0.13064,-1.6446 0.35832,-0.804 0.82064,-1.2985 1.59101,-1.7018 0.46658,-0.2443 0.48488,-0.2841 0.17678,-0.3848 -0.67368,-0.2201 -1.76146,-0.6892 -1.97885,-0.8533 -0.36767,-0.2775 -0.24987,-0.9683 0.23032,-1.3505 0.77765,-0.6189 5.408,-1.9877 6.73406,-1.9907 0.68664,0 1.4638,0.8257 1.92594,2.05 0.26715,0.7078 0.37276,0.82 0.68463,0.7273 1.55607,-0.4624 2.13912,-0.1722 3.47266,1.7281 1.66383,2.3711 2.61354,4.8074 2.11224,5.4186 -0.43999,0.5364 -1.34498,0.2822 -2.94989,-0.8285 -0.87225,-0.6037 -1.13236,-0.6309 -1.5516,-0.1622 -0.30158,0.3372 -0.29656,0.3533 0.14518,0.4655 0.64029,0.1626 1.64741,1.3511 1.87751,2.2157 0.27135,1.0196 -0.0385,2.0614 -0.86039,2.893 -0.65877,0.6665 -1.89584,1.159 -2.50589,0.9976 -0.23745,-0.063 -0.33756,0.057 -0.42002,0.5014 -0.34131,1.8408 -2.38353,3.0167 -4.1543,2.3922 -0.54141,-0.191 -0.5990101,-0.1677 -1.0966001,0.4431 -0.36846,0.4522 -0.79566,0.7259 -1.4315799,0.917 -1.06668,0.3205 -0.93233,0.3197 -1.79246,0.01 l 0,0 z m 1.92431,-0.889 c 2.16614,-0.9158 1.4392699,-4.3929 -0.91832,-4.3929 -1.51728,0 -2.35387,0.8502 -2.35387,2.392 0,0.6059 0.11448,0.9377 0.47172,1.3673 0.75666,0.9098 1.66231,1.1147 2.80047,0.6336 z m 4.72398,-1.4698 c 1.3949,-0.7109 1.33835,-3.1198 -0.094,-4.0035 -0.98634,-0.6085 -2.44899,-0.3057 -3.0567501,0.6328 -0.29515,0.4557 -0.29398,0.5012 0.0266,1.0434 0.18433,0.3117 0.3766701,0.9693 0.4274201,1.4611 0.0859,0.8327 0.13493,0.9087 0.71099,1.1035 0.66119,0.2235 1.21023,0.1579 1.98576,-0.2373 l 0,0 z m 3.6877,-3.0212 c 0.68983,-0.3609 1.21935,-1.2577 1.22018,-2.0665 7.6e-4,-0.7464 -0.59815,-1.7484 -1.24208,-2.0781 -0.61187,-0.3132 -1.70607,-0.2827 -2.28576,0.064 -1.03052,0.616 -1.3975,2.0365 -0.69121,2.6757 0.20707,0.1874 0.56604,0.6425 0.7977,1.0114 0.35692,0.5684 0.5167,0.6708 1.04651,0.6708 0.34391,0 0.8635,-0.1247 1.15466,-0.277 l 0,0 z m -7.3335101,-1.1827 c 0.64432,-0.6504 0.7689901,-1.9655 0.26349,-2.7796 -1.2127899,-1.953 -4.2602899,-1.1551 -4.2602899,1.1155 0,0.8578 0.35374,1.7555 0.78689,1.997 0.14112,0.079 0.81499,0.1431 1.49749,0.1431 1.1076799,0 1.2915399,-0.051 1.7124199,-0.476 l 0,0 z m 3.0742601,-1.1668 c 0,-0.5935 0.75604,-1.8658 1.3524,-2.2758 l 0.60748,-0.4176 -0.45539,-0.5476 c -0.89688,-1.0785 -2.48602,-1.1606 -3.45651,-0.1787 -0.6229501,0.6303 -0.6261901,0.6616 -0.15259,1.4737 0.20364,0.3492 0.39508,0.9776 0.42545,1.3964 0.0304,0.4188 0.0626,0.7816 0.0718,0.8062 0.009,0.025 0.37446,0.045 0.81198,0.045 0.62794,0 0.79548,-0.063 0.79548,-0.3013 z m 7.77818,-3.2096 c 0,-0.5199 -1.61762,-3.4122 -2.44119,-4.3647 -0.85982,-0.9945 -0.87259,-0.9976 -2.5415,-0.6051 -0.4479,0.1053 -0.51603,0.029 -1.19914,-1.3458 -0.39835,-0.8016 -0.82597,-1.497 -0.95027,-1.5452 -0.49141,-0.1908 -6.12616,1.3786 -6.12616,1.7062 0,0.1548 0.48367,0.3705 1.8561699,0.8279 0.48614,0.1621 1.08275,0.4346 1.3258301,0.6057 0.24305,0.1711 0.94308,0.5366 1.5556,0.8122 1.22249,0.55 1.44959,0.826 1.44959,1.7618 0,0.4567 0.0903,0.6547 0.33445,0.7331 0.18394,0.059 0.59373,0.3757 0.91065,0.7037 0.66817,0.6914 1.01632,0.6731 1.89884,-0.1 0.31937,-0.2797 0.71713,-0.5068 0.88389,-0.5047 0.16677,0 0.85319,0.3643 1.52538,0.8049 1.34489,0.8815 1.51786,0.9395 1.51786,0.5096 z m -10.5543801,-0.4102 c 0.16787,-0.2876 0.6204901,-0.6699 1.0058301,-0.8496 0.38533,-0.1798 0.70265,-0.4558 0.70516,-0.6134 0.009,-0.5846 -0.79222,-1.4984 -1.5480101,-1.7648 -0.65574,-0.2311 -0.83532,-0.2311 -1.4910599,0 -0.95047,0.335 -1.55361,1.1958 -1.54986,2.212 0.004,0.9593 0.11568,1.0834 1.02352,1.1328 0.41858,0.023 0.8958599,0.1209 1.0606599,0.2181 0.42985,0.2536 0.45661,0.2424 0.79376,-0.3351 z m 2.4524301,-2.2016 c -0.13117,-0.1327 -0.15418,-0.063 -0.0773,0.2347 0.0625,0.2418 0.14265,0.3229 0.18678,0.1889 0.0425,-0.129 -0.007,-0.3196 -0.10948,-0.4236 z"
       id="path3819"
       style="fill:#000000;fill-opacity:0.19607843;stroke-width:1;stroke-miterlimit:4;stroke-dasharray:none" />
    <path
       d="m 6.399101,1049.3523 c -0.33365,-0.1235 -0.89531,-0.5719 -1.11563,-0.8907 -0.26506,-0.3835 -0.34734,-0.6764 -0.35038,-1.2473 -0.007,-1.4021 0.75867,-2.239 2.11772,-2.3131 0.45106,-0.025 0.59484,-0.01 0.90921,0.112 0.7339799,0.2775 1.2670999,0.9757 1.4182799,1.8573 0.17737,1.0343 -0.38556,2.0149 -1.3753899,2.3957 -0.45308,0.1743 -1.24996,0.2171 -1.60381,0.086 z"
       id="path3837"
       style="fill:#ffffff;fill-opacity:1;stroke-width:1;stroke-miterlimit:4;stroke-dasharray:none" />
    <path
       d="m 10.944321,1047.9842 c -0.54621,-0.178 -0.64742,-0.3216 -0.7306,-1.0368 -0.0631,-0.5425 -0.2143501,-1.0586 -0.4451701,-1.5191 -0.11726,-0.2339 -0.2132,-0.4919 -0.2132,-0.5733 0,-0.1468 0.33746,-0.6417 0.5882501,-0.8627 0.0718,-0.063 0.28518,-0.1906 0.47425,-0.2831 0.30665,-0.1499 0.41457,-0.1681 1,-0.1681 0.58929,0 0.68813,0.017 0.96875,0.1654 0.85316,0.4516 1.34501,1.3814 1.26111,2.384 -0.0696,0.8314 -0.45662,1.3999 -1.18002,1.7334 -0.3746,0.1726 -0.5447,0.2133 -0.95589,0.2287 -0.30825,0.012 -0.60277,-0.015 -0.76748,-0.068 z"
       id="path3839"
       style="fill:#ffffff;fill-opacity:1;stroke-width:1;stroke-miterlimit:4;stroke-dasharray:none" />
    <path
       d="m 6.379821,1043.9491 c -0.18248,-0.028 -0.3893,-0.1035 -0.4596,-0.1671 -0.43959,-0.3979 -0.72539,-1.4582 -0.60348,-2.239 0.18371,-1.1765 1.37805,-2.011 2.5643,-1.7917 0.9745799,0.1801 1.6763299,0.8631 1.8459999,1.7967 0.1274,0.7009 -0.11544,1.5861 -0.55253,2.0141 -0.38831,0.3803 -0.4962,0.4104 -1.5254099,0.4251 -0.51563,0.01 -1.0868,-0.01 -1.26928,-0.038 z"
       id="path3841"
       style="fill:#ffffff;fill-opacity:1;stroke-width:1;stroke-miterlimit:4;stroke-dasharray:none" />
    <path
       d="m 10.979371,1042.6552 c -0.2562,-0.03 -0.24948,-0.014 -0.33382,-0.7993 -0.0535,-0.4982 -0.24594,-1.1137 -0.47882,-1.5317 -0.3675601,-0.6596 -0.3455201,-0.7744 0.25631,-1.3343 0.49971,-0.4649 0.92299,-0.6363 1.57132,-0.6362 0.47343,1e-4 0.57821,0.022 0.94079,0.201 0.27645,0.1361 0.543,0.3407 0.82661,0.6345 0.23022,0.2384 0.41859,0.4615 0.41859,0.4956 0,0.034 -0.13848,0.1509 -0.30772,0.2595 -0.70472,0.4522 -1.39671,1.464 -1.56933,2.2945 -0.0369,0.1775 -0.10489,0.3373 -0.15112,0.355 -0.13238,0.051 -0.91651,0.092 -1.17281,0.061 z"
       id="path3843"
       style="fill:#ffffff;fill-opacity:1;stroke-width:1;stroke-miterlimit:4;stroke-dasharray:none" />
    <path
       d="m 14.948591,1044.9219 c -0.1195,-0.054 -0.32148,-0.2617 -0.5,-0.5131 -0.16472,-0.2321 -0.46503,-0.6206 -0.66734,-0.8635 -0.47455,-0.5698 -0.56204,-0.7787 -0.52004,-1.2419 0.0619,-0.6824 0.51211,-1.3241 1.17855,-1.6797 0.24097,-0.1286 0.357,-0.1451 1.02184,-0.1451 0.71635,0 0.7652,0.01 1.0889,0.1875 0.6075,0.3361 1.11535,1.1477 1.17615,1.8795 0.0804,0.9677 -0.59192,1.9922 -1.512,2.304 -0.44552,0.151 -1.02097,0.1838 -1.26606,0.072 z"
       id="path3845"
       style="fill:#fffeff;fill-opacity:1;stroke-width:1;stroke-miterlimit:4;stroke-dasharray:none" />
    <path
       d="m 8.7862209,1039.1228 c -0.14799,-0.08 -0.5332099,-0.1713 -1.0194099,-0.2413 -0.42984,-0.062 -0.82153,-0.1458 -0.87043,-0.1864 -0.23154,-0.1921 -0.28333,-1.0204 -0.10052,-1.6077 0.26377,-0.8475 0.82745,-1.3552 1.7800599,-1.6034 0.81097,-0.2112 1.9135001,0.3549 2.4239601,1.2446 0.3261,0.5684 0.24885,0.7536 -0.49512,1.1869 -0.5221801,0.3042 -0.7834801,0.541 -1.0818601,0.9804 -0.13597,0.2002 -0.28132,0.3621 -0.32301,0.3598 -0.0417,0 -0.18284,-0.062 -0.31367,-0.1329 l 0,0 z"
       id="path3847"
       style="fill:#ffffff;fill-opacity:1;stroke-width:1;stroke-miterlimit:4;stroke-dasharray:none" />
    <path
       d="m 19.762521,1039.3538 c -0.10949,-0.047 -0.64387,-0.3589 -1.1875,-0.6944 -0.54363,-0.3355 -1.11547,-0.6584 -1.27076,-0.7177 -0.34236,-0.1307 -0.49663,-0.081 -1.03125,0.3294 -0.53718,0.4128 -0.97852,0.6763 -1.1327,0.6763 -0.25414,0 -0.4415,-0.1124 -0.93748,-0.5624 -0.27018,-0.2451 -0.59484,-0.4997 -0.72148,-0.5658 -0.31543,-0.1646 -0.426,-0.345 -0.426,-0.6951 0,-0.1626 -0.0315,-0.4422 -0.0699,-0.6215 -0.10907,-0.5086 -0.34801,-0.7047 -1.71135,-1.4043 -0.65313,-0.3352 -1.3984401,-0.7176 -1.6562501,-0.8498 -0.25782,-0.1321 -0.8518,-0.378 -1.31997,-0.5465 -0.8848899,-0.3184 -1.3305099,-0.5192 -1.3993199,-0.6305 -0.0965,-0.1561 1.6535899,-0.7628 3.68804,-1.2785 1.16181,-0.2946 2.24854,-0.4982 2.34394,-0.4392 0.12185,0.075 0.43202,0.5839 0.93362,1.5311 0.28218,0.5328 0.58269,1.0601 0.6678,1.1719 0.18658,0.2449 0.31374,0.2536 1.11397,0.077 1.0411,-0.2302 1.20616,-0.1704 1.94067,0.7028 0.79187,0.9414 2.33471,3.6276 2.43937,4.2471 0.053,0.3135 -0.01,0.378 -0.26345,0.2704 l 0,0 z"
       id="path3849"
       style="fill:#ffffff;fill-opacity:1;stroke-width:1;stroke-miterlimit:4;stroke-dasharray:none" />
  </g>
</svg>
