<?xml version="1.0" encoding="UTF-8" standalone="no"?>
<!-- Created with Inkscape (http://www.inkscape.org/) -->

<svg
   xmlns:dc="http://purl.org/dc/elements/1.1/"
   xmlns:cc="http://creativecommons.org/ns#"
   xmlns:rdf="http://www.w3.org/1999/02/22-rdf-syntax-ns#"
   xmlns:svg="http://www.w3.org/2000/svg"
   xmlns="http://www.w3.org/2000/svg"
   xmlns:sodipodi="http://sodipodi.sourceforge.net/DTD/sodipodi-0.dtd"
   xmlns:inkscape="http://www.inkscape.org/namespaces/inkscape"
   version="1.1"
   width="24"
   height="24"
   id="svg3869"
   inkscape:version="0.48.1 r9760"
   sodipodi:docname="vineyard-panel-alert (red).svg">
  <sodipodi:namedview
     pagecolor="#ffffff"
     bordercolor="#666666"
     borderopacity="1"
     objecttolerance="10"
     gridtolerance="10"
     guidetolerance="10"
     inkscape:pageopacity="0"
     inkscape:pageshadow="2"
     inkscape:window-width="1067"
     inkscape:window-height="742"
     id="namedview14"
     showgrid="false"
     inkscape:zoom="5.9375"
     inkscape:cx="-4.3332646"
     inkscape:cy="2.5685357"
     inkscape:window-x="8"
     inkscape:window-y="24"
     inkscape:window-maximized="0"
     inkscape:current-layer="svg3869">
    <inkscape:grid
       type="xygrid"
       id="grid4693" />
  </sodipodi:namedview>
  <defs
     id="defs3871" />
  <metadata
     id="metadata3874">
    <rdf:RDF>
      <cc:Work
         rdf:about="">
        <dc:format>image/svg+xml</dc:format>
        <dc:type
           rdf:resource="http://purl.org/dc/dcmitype/StillImage" />
        <dc:title></dc:title>
      </cc:Work>
    </rdf:RDF>
  </metadata>
  <g
     id="g4695"
     style="fill:#000000;fill-opacity:1;opacity:0.3">
    <path
       inkscape:connector-curvature="0"
       style="fill:#000000;fill-opacity:1;stroke-width:1;stroke-miterlimit:4;stroke-dasharray:none"
       id="path4677"
       d="M 6.3773006,22.052373 C 6.0342384,21.925389 5.4567339,21.46434 5.2301987,21.136547 4.9576613,20.742228 4.8730602,20.441065 4.8699344,19.85406 c -0.0072,-1.441653 0.7800722,-2.302162 2.177461,-2.378352 0.4637844,-0.02571 0.6116205,-0.01028 0.9348588,0.115159 0.7546855,0.285328 1.3028449,1.003225 1.4582897,1.909695 0.1823736,1.063477 -0.3964367,2.07174 -1.4141897,2.463282 -0.4658614,0.179217 -1.2852214,0.223225 -1.6490536,0.08843 z" />
    <path
       inkscape:connector-curvature="0"
       style="fill:#000000;fill-opacity:1;stroke-width:1;stroke-miterlimit:4;stroke-dasharray:none"
       id="path4679"
       d="M 10.899579,20.750804 C 10.32129,20.56235 10.214136,20.410317 10.126071,19.653113 10.059265,19.078753 9.8991322,18.532342 9.6547562,18.044797 9.5306096,17.797161 9.4290351,17.524008 9.4290351,17.437828 c 0,-0.155422 0.3572789,-0.679387 0.6227979,-0.913366 0.07602,-0.0667 0.301928,-0.201794 0.502102,-0.299726 0.32466,-0.158704 0.438918,-0.177973 1.05873,-0.177973 0.623898,0 0.728543,0.018 1.025644,0.175114 0.903266,0.478122 1.424002,1.462529 1.335174,2.524011 -0.07369,0.880228 -0.483437,1.482116 -1.249322,1.835202 -0.3966,0.182737 -0.57669,0.225827 -1.012029,0.242131 -0.326353,0.01271 -0.63817,-0.01588 -0.812553,-0.07199 z" />
    <path
       inkscape:connector-curvature="0"
       style="fill:#000000;fill-opacity:1;stroke-width:1;stroke-miterlimit:4;stroke-dasharray:none"
       id="path4681"
       d="M 6.3347023,16.669931 C 6.1450308,16.640827 5.9300601,16.562352 5.8569896,16.496246 5.4000755,16.082664 5.1030121,14.980579 5.2297266,14.169007 c 0.1909499,-1.222865 1.4323587,-2.090252 2.6653584,-1.86231 1.0129879,0.187198 1.7423936,0.897114 1.9187503,1.867507 0.1324208,0.728523 -0.1199894,1.648608 -0.574305,2.093475 -0.4036132,0.395288 -0.5157552,0.426574 -1.5855259,0.441853 -0.5359509,0.01039 -1.1296306,-0.01039 -1.3193021,-0.0395 z" />
    <path
       inkscape:connector-curvature="0"
       style="fill:#000000;fill-opacity:1;stroke-width:1;stroke-miterlimit:4;stroke-dasharray:none"
       id="path4683"
       d="m 10.916521,15.419135 c -0.271211,-0.03176 -0.264097,-0.01482 -0.353379,-0.846131 -0.05663,-0.52739 -0.260349,-1.178952 -0.506874,-1.621443 -0.3890954,-0.698246 -0.365764,-0.819772 0.271327,-1.412477 0.528989,-0.492138 0.977069,-0.673581 1.663384,-0.673475 0.501169,1.06e-4 0.612088,0.02329 0.995912,0.212777 0.292647,0.144074 0.574814,0.360662 0.875041,0.671675 0.243709,0.252368 0.443115,0.48854 0.443115,0.524638 0,0.03599 -0.146593,0.159741 -0.325749,0.274704 -0.74601,0.478694 -1.478544,1.549776 -1.661278,2.428935 -0.03906,0.1879 -0.111035,0.357063 -0.159974,0.3758 -0.140136,0.05399 -0.970208,0.09739 -1.241525,0.06457 z" />
    <path
       inkscape:connector-curvature="0"
       style="fill:#000000;fill-opacity:1;stroke-width:1;stroke-miterlimit:4;stroke-dasharray:none"
       id="path4685"
       d="m 14.923037,17.662942 c -0.125114,-0.05654 -0.336583,-0.273994 -0.523489,-0.537205 -0.172459,-0.243003 -0.486877,-0.649755 -0.698691,-0.904066 -0.496844,-0.596569 -0.588444,-0.815283 -0.544471,-1.300243 0.06481,-0.714459 0.536168,-1.386305 1.233917,-1.758611 0.25229,-0.134641 0.373771,-0.151917 1.069845,-0.151917 0.750003,0 0.801148,0.01047 1.140055,0.196309 0.63604,0.35189 1.167749,1.201618 1.231405,1.967797 0.08418,1.013162 -0.619728,2.085792 -1.583032,2.41224 -0.466451,0.158094 -1.068935,0.192435 -1.325539,0.07538 z" />
    <path
       inkscape:connector-curvature="0"
       style="fill:#000000;fill-opacity:1;stroke-width:1;stroke-miterlimit:4;stroke-dasharray:none"
       id="path4687"
       d="M 8.7796876,11.839369 C 8.625166,11.755838 8.2229441,11.660508 7.7152853,11.587419 7.2664739,11.522682 6.8574964,11.435184 6.8064381,11.392792 6.5646789,11.192213 6.5106031,10.327356 6.7014816,9.7141347 c 0.2754117,-0.884905 0.8639702,-1.415013 1.8586243,-1.674168 0.8467628,-0.220521 1.9979541,0.370564 2.5309431,1.299532 0.340493,0.593487 0.259834,0.7868613 -0.516972,1.2392853 -0.545227,0.317626 -0.8180598,0.564877 -1.129609,1.02367 -0.1419711,0.209036 -0.2937363,0.378082 -0.3372663,0.37568 -0.04354,0 -0.1909098,-0.06474 -0.3275141,-0.138765 l 0,0 z" />
    <path
       inkscape:connector-curvature="0"
       style="fill:#000000;fill-opacity:1;stroke-width:1;stroke-miterlimit:4;stroke-dasharray:none"
       id="path4689"
       d="m 20.025576,12.158414 c -0.114067,-0.04897 -0.670783,-0.373902 -1.237136,-0.723425 -0.566352,-0.349523 -1.162094,-0.68592 -1.323875,-0.747698 -0.356669,-0.136163 -0.517388,-0.08439 -1.074354,0.343168 -0.559633,0.430054 -1.01942,0.704568 -1.180045,0.704568 -0.264762,0 -0.459953,-0.117098 -0.976664,-0.585907 -0.281473,-0.255345 -0.619703,-0.520586 -0.751636,-0.589449 -0.328615,-0.17148 -0.443806,-0.359421 -0.443806,-0.7241543 0,-0.169396 -0.03281,-0.460683 -0.07282,-0.647477 C 12.851609,8.6581807 12.602682,8.4538837 11.182357,7.7250427 10.501928,7.3758317 9.725465,6.9774487 9.4568792,6.8397227 9.1882827,6.7021007 8.5694756,6.4459227 8.0817371,6.2703797 7.1598607,5.9386717 6.6956147,5.7294787 6.6239285,5.6135267 6.5233951,5.4509017 8.3466351,4.8188427 10.466121,4.2815877 c 1.210371,-0.306914 2.342524,-0.519024 2.441912,-0.457558 0.126943,0.07813 0.450077,0.608306 0.972643,1.595097 0.293975,0.55507 0.607046,1.10441 0.695713,1.220883 0.194379,0.255136 0.326853,0.2642 1.160531,0.08022 1.084616,-0.239822 1.256576,-0.177522 2.021786,0.732176 0.824969,0.980748 2.432296,3.7792263 2.541331,4.4246203 0.05521,0.326603 -0.01042,0.393799 -0.274461,0.281702 l 0,0 z" />
  </g>
  <path
     inkscape:connector-curvature="0"
     style="fill:#19b6ee;fill-opacity:1;stroke-width:1;stroke-miterlimit:4;stroke-dasharray:none"
     id="path3837"
     d="M 6.3773006,21.051948 C 6.0342384,20.924964 5.4567339,20.463915 5.2301987,20.136122 4.9576613,19.741803 4.8730602,19.44064 4.8699344,18.853635 c -0.0072,-1.441653 0.7800722,-2.302162 2.177461,-2.378352 0.4637844,-0.02571 0.6116205,-0.01028 0.9348588,0.115159 0.7546855,0.285328 1.3028449,1.003225 1.4582897,1.909695 0.1823736,1.063477 -0.3964367,2.07174 -1.4141897,2.463282 -0.4658614,0.179217 -1.2852214,0.223225 -1.6490536,0.08843 z" />
  <path
     inkscape:connector-curvature="0"
     style="fill:#19b6ee;fill-opacity:1;stroke-width:1;stroke-miterlimit:4;stroke-dasharray:none"
     id="path3839"
     d="M 10.899579,19.750379 C 10.32129,19.561925 10.214136,19.409892 10.126071,18.652688 10.059265,18.078328 9.8991322,17.531917 9.6547562,17.044372 9.5306096,16.796736 9.4290351,16.523583 9.4290351,16.437403 c 0,-0.155422 0.3572789,-0.679387 0.6227979,-0.913366 0.07602,-0.0667 0.301928,-0.201794 0.502102,-0.299726 0.32466,-0.158704 0.438918,-0.177973 1.05873,-0.177973 0.623898,0 0.728543,0.018 1.025644,0.175114 0.903266,0.478122 1.424002,1.462529 1.335174,2.524011 -0.07369,0.880228 -0.483437,1.482116 -1.249322,1.835202 -0.3966,0.182737 -0.57669,0.225827 -1.012029,0.242131 -0.326353,0.01271 -0.63817,-0.01588 -0.812553,-0.07199 z" />
  <path
     inkscape:connector-curvature="0"
     style="fill:#19b6ee;fill-opacity:1;stroke-width:1;stroke-miterlimit:4;stroke-dasharray:none"
     id="path3841"
     d="M 6.3347023,15.669506 C 6.1450308,15.640402 5.9300601,15.561927 5.8569896,15.495821 5.4000755,15.082239 5.1030121,13.980154 5.2297266,13.168582 5.4206765,11.945717 6.6620853,11.07833 7.895085,11.306272 c 1.0129879,0.187198 1.7423936,0.897114 1.9187503,1.867507 0.1324208,0.728523 -0.1199894,1.648608 -0.574305,2.093475 -0.4036132,0.395288 -0.5157552,0.426574 -1.5855259,0.441853 -0.5359509,0.01039 -1.1296306,-0.01039 -1.3193021,-0.0395 z" />
  <path
     inkscape:connector-curvature="0"
     style="fill:#19b6ee;fill-opacity:1;stroke-width:1;stroke-miterlimit:4;stroke-dasharray:none"
     id="path3843"
     d="m 10.916521,14.41871 c -0.271211,-0.03176 -0.264097,-0.01482 -0.353379,-0.846131 -0.05663,-0.52739 -0.260349,-1.178952 -0.506874,-1.621443 -0.3890954,-0.698246 -0.365764,-0.819772 0.271327,-1.412477 0.528989,-0.492138 0.977069,-0.6735806 1.663384,-0.6734748 0.501169,1.059e-4 0.612088,0.023289 0.995912,0.2127768 0.292647,0.144074 0.574814,0.360662 0.875041,0.671675 0.243709,0.252368 0.443115,0.48854 0.443115,0.524638 0,0.03599 -0.146593,0.159741 -0.325749,0.274704 -0.74601,0.478694 -1.478544,1.549776 -1.661278,2.428935 -0.03906,0.1879 -0.111035,0.357063 -0.159974,0.3758 -0.140136,0.05399 -0.970208,0.09739 -1.241525,0.06457 z" />
  <path
     inkscape:connector-curvature="0"
     style="fill:#19b6ee;fill-opacity:1;stroke-width:1;stroke-miterlimit:4;stroke-dasharray:none"
     id="path3845"
     d="m 14.923037,16.662517 c -0.125114,-0.05654 -0.336583,-0.273994 -0.523489,-0.537205 -0.172459,-0.243003 -0.486877,-0.649755 -0.698691,-0.904066 -0.496844,-0.596569 -0.588444,-0.815283 -0.544471,-1.300243 0.06481,-0.714459 0.536168,-1.386305 1.233917,-1.758611 0.25229,-0.134641 0.373771,-0.151917 1.069845,-0.151917 0.750003,0 0.801148,0.01047 1.140055,0.196309 0.63604,0.35189 1.167749,1.201618 1.231405,1.967797 0.08418,1.013162 -0.619728,2.085792 -1.583032,2.41224 -0.466451,0.158094 -1.068935,0.192435 -1.325539,0.07538 z" />
  <path
     inkscape:connector-curvature="0"
     style="fill:#19b6ee;fill-opacity:1;stroke-width:1;stroke-miterlimit:4;stroke-dasharray:none"
     id="path3847"
     d="M 8.7796876,10.838944 C 8.625166,10.755413 8.2229441,10.660083 7.7152853,10.586994 7.2664739,10.522257 6.8574964,10.434759 6.8064381,10.392367 6.5646789,10.191788 6.5106031,9.3269308 6.7014816,8.7137098 6.9768933,7.8288047 7.5654518,7.298697 8.5601059,7.0395425 9.4068687,6.819021 10.55806,7.4101063 11.091049,8.3390739 11.431542,8.9325607 11.350883,9.1259346 10.574077,9.5783587 10.02885,9.8959848 9.7560172,10.143236 9.444468,10.602029 c -0.1419711,0.209036 -0.2937363,0.378082 -0.3372663,0.37568 -0.04354,0 -0.1909098,-0.06474 -0.3275141,-0.138765 l 0,0 z" />
  <path
     inkscape:connector-curvature="0"
     style="fill:#19b6ee;fill-opacity:1;stroke-width:1;stroke-miterlimit:4;stroke-dasharray:none"
     id="path3849"
     d="m 20.025576,11.157989 c -0.114067,-0.04897 -0.670783,-0.373902 -1.237136,-0.723425 -0.566352,-0.349523 -1.162094,-0.6859195 -1.323875,-0.7476981 -0.356669,-0.136163 -0.517388,-0.084386 -1.074354,0.3431681 -0.559633,0.430054 -1.01942,0.704568 -1.180045,0.704568 -0.264762,0 -0.459953,-0.117098 -0.976664,-0.585907 C 13.952029,9.8933502 13.613799,9.6281085 13.481866,9.5592456 13.153251,9.3877657 13.03806,9.1998253 13.03806,8.8350919 c 0,-0.1693964 -0.03281,-0.460683 -0.07282,-0.6474774 C 12.851609,7.6577561 12.602682,7.4534595 11.182357,6.7246177 10.501928,6.375407 9.725465,5.9770235 9.4568792,5.8392977 9.1882827,5.7016763 8.5694756,5.4454981 8.0817371,5.2699552 7.1598607,4.9382467 6.6956147,4.7290537 6.6239285,4.6131016 6.5233951,4.4504769 8.3466351,3.8184181 10.466121,3.2811629 c 1.210371,-0.3069136 2.342524,-0.5190237 2.441912,-0.4575576 0.126943,0.078134 0.450077,0.6083058 0.972643,1.5950968 0.293975,0.5550699 0.607046,1.10441 0.695713,1.220883 0.194379,0.2551363 0.326853,0.2642 1.160531,0.080219 1.084616,-0.2398218 1.256576,-0.1775224 2.021786,0.7321756 0.824969,0.9807486 2.432296,3.7792266 2.541331,4.4246206 0.05521,0.326603 -0.01042,0.393799 -0.274461,0.281702 l 0,0 z" />
</svg>
