<?xml version="1.0" encoding="UTF-8" standalone="no"?>
<!-- Created with Inkscape (http://www.inkscape.org/) -->
<svg
   xmlns:dc="http://purl.org/dc/elements/1.1/"
   xmlns:cc="http://web.resource.org/cc/"
   xmlns:rdf="http://www.w3.org/1999/02/22-rdf-syntax-ns#"
   xmlns:svg="http://www.w3.org/2000/svg"
   xmlns="http://www.w3.org/2000/svg"
   xmlns:xlink="http://www.w3.org/1999/xlink"
   xmlns:sodipodi="http://sodipodi.sourceforge.net/DTD/sodipodi-0.dtd"
   xmlns:inkscape="http://www.inkscape.org/namespaces/inkscape"
   width="48"
   height="48"
   id="svg3366"
   sodipodi:version="0.32"
   inkscape:version="0.45"
   version="1.0"
   sodipodi:docbase="/home/karl/workspace/wine-doors/wine-doors/trunk/pixmaps"
   sodipodi:docname="gecko.svg"
   inkscape:output_extension="org.inkscape.output.svg.inkscape"
   inkscape:export-filename="/home/karl/workspace/wine-doors/wine-doors/trunk/pixmaps/gecko.png"
   inkscape:export-xdpi="90"
   inkscape:export-ydpi="90"
   sodipodi:modified="true">
  <defs
     id="defs3368">
    <linearGradient
       id="linearGradient3584">
      <stop
         style="stop-color:#000000;stop-opacity:0.61855668;"
         offset="0"
         id="stop3586" />
      <stop
         style="stop-color:#000000;stop-opacity:0;"
         offset="1"
         id="stop3588" />
    </linearGradient>
    <linearGradient
       id="linearGradient3572">
      <stop
         style="stop-color:#dce8f8;stop-opacity:1;"
         offset="0"
         id="stop3574" />
      <stop
         style="stop-color:#a7bfd9;stop-opacity:1;"
         offset="1"
         id="stop3576" />
    </linearGradient>
    <linearGradient
       id="linearGradient3543">
      <stop
         style="stop-color:#89afd7;stop-opacity:1;"
         offset="0"
         id="stop3545" />
      <stop
         style="stop-color:#204a87;stop-opacity:1;"
         offset="1"
         id="stop3547" />
    </linearGradient>
    <linearGradient
       inkscape:collect="always"
       id="linearGradient3531">
      <stop
         style="stop-color:#000000;stop-opacity:1;"
         offset="0"
         id="stop3533" />
      <stop
         style="stop-color:#000000;stop-opacity:0;"
         offset="1"
         id="stop3535" />
    </linearGradient>
    <linearGradient
       inkscape:collect="always"
       xlink:href="#linearGradient3531"
       id="linearGradient3537"
       x1="37.24823"
       y1="47.694691"
       x2="12.643748"
       y2="-0.5"
       gradientUnits="userSpaceOnUse" />
    <linearGradient
       inkscape:collect="always"
       xlink:href="#linearGradient3543"
       id="linearGradient3560"
       gradientUnits="userSpaceOnUse"
       x1="13.74091"
       y1="16.639114"
       x2="45.279987"
       y2="47.544693"
       gradientTransform="translate(-9.2799877,3.35)" />
    <linearGradient
       inkscape:collect="always"
       xlink:href="#linearGradient3543"
       id="linearGradient3564"
       gradientUnits="userSpaceOnUse"
       gradientTransform="matrix(6.1147971,0,0,6.1147971,-117.46128,-120.69564)"
       x1="13.74091"
       y1="16.639114"
       x2="45.279987"
       y2="47.544693" />
    <linearGradient
       inkscape:collect="always"
       xlink:href="#linearGradient3543"
       id="linearGradient3568"
       gradientUnits="userSpaceOnUse"
       gradientTransform="matrix(1.0276938,0,0,1.0276938,-0.9889728,-0.5249953)"
       x1="13.74091"
       y1="16.639114"
       x2="45.279987"
       y2="47.544693" />
    <linearGradient
       inkscape:collect="always"
       xlink:href="#linearGradient3572"
       id="linearGradient3578"
       x1="6.0750613"
       y1="-0.34999999"
       x2="25.938463"
       y2="47.544693"
       gradientUnits="userSpaceOnUse"
       gradientTransform="matrix(0.7896188,0,0,0.7896188,5.075604,2.9870235)" />
    <linearGradient
       inkscape:collect="always"
       xlink:href="#linearGradient3543"
       id="linearGradient3580"
       gradientUnits="userSpaceOnUse"
       gradientTransform="matrix(3.8845225,0,0,3.8845225,-65.998843,-70.044494)"
       x1="17.736719"
       y1="16.471302"
       x2="45.279987"
       y2="47.544693" />
    <radialGradient
       inkscape:collect="always"
       xlink:href="#linearGradient3584"
       id="radialGradient3590"
       cx="24.297895"
       cy="39.758251"
       fx="24.297895"
       fy="39.758251"
       r="21.717496"
       gradientTransform="matrix(1,0,0,0.2044595,0,31.629298)"
       gradientUnits="userSpaceOnUse" />
  </defs>
  <sodipodi:namedview
     id="base"
     pagecolor="#ffffff"
     bordercolor="#666666"
     borderopacity="1.0"
     inkscape:pageopacity="0.0"
     inkscape:pageshadow="2"
     inkscape:zoom="8.4791667"
     inkscape:cx="24"
     inkscape:cy="24"
     inkscape:current-layer="layer1"
     showgrid="true"
     inkscape:grid-bbox="true"
     inkscape:document-units="px"
     width="48px"
     height="48px"
     inkscape:window-width="872"
     inkscape:window-height="632"
     inkscape:window-x="202"
     inkscape:window-y="104" />
  <metadata
     id="metadata3371">
    <rdf:RDF>
      <cc:Work
         rdf:about="">
        <dc:format>image/svg+xml</dc:format>
        <dc:type
           rdf:resource="http://purl.org/dc/dcmitype/StillImage" />
      </cc:Work>
    </rdf:RDF>
  </metadata>
  <g
     id="layer1"
     inkscape:label="Layer 1"
     inkscape:groupmode="layer">
    <path
       sodipodi:type="arc"
       style="opacity:1;color:#000000;fill:url(#radialGradient3590);fill-opacity:1;fill-rule:evenodd;stroke:none;stroke-width:0.69999999;stroke-linecap:butt;stroke-linejoin:miter;marker:none;marker-start:none;marker-mid:none;marker-end:none;stroke-miterlimit:4;stroke-dasharray:none;stroke-dashoffset:0;stroke-opacity:1;visibility:visible;display:inline;overflow:visible;enable-background:accumulate"
       id="path3582"
       sodipodi:cx="24.297895"
       sodipodi:cy="39.758251"
       sodipodi:rx="21.367496"
       sodipodi:ry="4.0903492"
       d="M 45.665392 39.758251 A 21.367496 4.0903492 0 1 1  2.9303989,39.758251 A 21.367496 4.0903492 0 1 1  45.665392 39.758251 z"
       transform="translate(6.9601059e-2,1.1513996)" />
    <path
       id="path3570"
       style="font-size:10.47636795px;font-style:normal;font-weight:normal;fill:none;fill-opacity:1;stroke:#0d213d;stroke-width:2.5;stroke-linecap:butt;stroke-linejoin:miter;stroke-miterlimit:4;stroke-dasharray:none;stroke-opacity:1;font-family:Bitstream Vera Sans"
       d="M 10.95141,33.490827 C 10.609476,33.704593 10.254488,33.864917 9.8864448,33.9718 C 9.5183926,34.078684 9.1384725,34.132125 8.7466829,34.132125 C 7.8609908,34.132125 7.1593256,33.81453 6.6416854,33.179338 C 6.124043,32.541095 5.8652224,31.676869 5.8652227,30.586659 C 5.8652224,29.48424 6.128792,28.61696 6.6559325,27.984818 C 7.1830706,27.352687 7.9049191,27.036619 8.8214799,27.036612 C 9.1752772,27.036619 9.5136437,27.079372 9.8365802,27.164873 C 10.161882,27.250385 10.468193,27.377118 10.755513,27.54507 L 10.755513,28.960509 C 10.458695,28.743694 10.16307,28.581842 9.8686359,28.474953 C 9.5765679,28.368077 9.283317,28.314635 8.9888823,28.314629 C 8.4427436,28.314635 8.0212695,28.511605 7.7244591,28.90554 C 7.4300188,29.296433 7.2827996,29.856804 7.2828014,30.586659 C 7.2827996,31.310413 7.4252697,31.869258 7.7102121,32.263198 C 7.99515,32.65714 8.4000025,32.854109 8.9247708,32.854108 C 9.0672374,32.854109 9.1990222,32.843421 9.3201256,32.822044 C 9.4435958,32.797613 9.5540102,32.760969 9.6513689,32.712107 L 9.6513689,31.383702 L 8.8143563,31.383702 L 8.8143563,30.20188 L 10.95141,30.20188 L 10.95141,33.490827 M 17.611893,30.560702 L 17.611893,31.183678 L 13.636974,31.183678 C 13.67813,31.69672 13.822183,32.081497 14.069133,32.338016 C 14.316079,32.594537 14.661173,32.722796 15.104417,32.722795 C 15.462172,32.722796 15.827845,32.655613 16.201437,32.521244 C 16.578187,32.382807 16.964438,32.175148 17.360196,31.898268 L 17.360196,33.583967 C 16.958107,33.779411 16.556025,33.925994 16.153947,34.023715 C 15.751861,34.125508 15.349778,34.176405 14.9477,34.176405 C 13.985232,34.176405 13.236472,33.862882 12.701419,33.235833 C 12.169529,32.604716 11.903585,31.721149 11.903586,30.585132 C 11.903585,29.46948 12.164781,28.592021 12.687172,27.952753 C 13.212727,27.313496 13.934576,26.993866 14.85272,26.993858 C 15.688541,26.993866 16.356567,27.317569 16.856801,27.964968 C 17.36019,28.612381 17.611887,29.477624 17.611893,30.560702 M 15.864259,29.833896 C 15.864253,29.418584 15.769274,29.084702 15.579318,28.832248 C 15.39252,28.575734 15.147154,28.447475 14.843221,28.44747 C 14.513954,28.447475 14.246427,28.567592 14.040639,28.807818 C 13.834847,29.043984 13.706623,29.386009 13.655969,29.833896 L 15.864259,29.833896 M 23.191976,27.372531 L 23.191976,29.155952 C 22.960853,28.95237 22.728152,28.801716 22.493872,28.70399 C 22.262749,28.606273 22.022133,28.557412 21.772023,28.557407 C 21.297119,28.557412 20.926696,28.736568 20.660756,29.094876 C 20.397974,29.449122 20.266586,29.945874 20.266587,30.585132 C 20.266586,31.224398 20.397974,31.723186 20.660756,32.081496 C 20.926696,32.435739 21.297119,32.61286 21.772023,32.612858 C 22.037963,32.61286 22.28966,32.561963 22.527115,32.460168 C 22.767727,32.358375 22.989346,32.207722 23.191976,32.008205 L 23.191976,33.797733 C 22.926026,33.923958 22.655333,34.017608 22.379896,34.078684 C 22.107615,34.143831 21.833756,34.176405 21.558317,34.176405 C 20.599015,34.176405 19.848673,33.860846 19.307287,33.229726 C 18.7659,32.594537 18.495208,31.713006 18.495208,30.585132 C 18.495208,29.457265 18.7659,28.57777 19.307287,27.946645 C 19.848673,27.311461 20.599015,26.993866 21.558317,26.993858 C 21.836921,26.993866 22.110781,27.026439 22.379896,27.091581 C 22.652168,27.152663 22.922861,27.246314 23.191976,27.372531 M 24.668918,24.495847 L 26.369063,24.495847 L 26.369063,29.668991 L 28.325654,27.158763 L 30.301241,27.158763 L 27.703534,30.298074 L 30.505448,33.999285 L 28.444379,33.999285 L 26.369063,31.147033 L 26.369063,33.999285 L 24.668918,33.999285 L 24.668918,24.495847 M 33.416588,28.557407 C 33.039831,28.557412 32.751725,28.732496 32.552268,29.08266 C 32.355974,29.428763 32.257829,29.929587 32.25783,30.585132 C 32.257829,31.240685 32.355974,31.743544 32.552268,32.093711 C 32.751725,32.439811 33.039831,32.61286 33.416588,32.612858 C 33.787007,32.61286 34.070365,32.439811 34.26666,32.093711 C 34.462948,31.743544 34.561095,31.240685 34.561099,30.585132 C 34.561095,29.929587 34.462948,29.428763 34.26666,29.08266 C 34.070365,28.732496 33.787007,28.557412 33.416588,28.557407 M 36.065373,29.903219 C 36.395432,26.854339 35.969427,23.09398 33.50188,20.358636 C 31.449952,18.084019 30.439115,18.220651 26.533057,18.176028 C 25.850144,18.795565 26.756476,19.663896 27.138367,20.267451 C 27.588935,20.979547 29.0416,21.379125 28.62254,21.889371 C 28.121387,22.49957 26.812431,21.609998 26.812431,21.609998 C 26.812431,21.609998 27.350808,23.307096 26.630062,23.563673 C 26.242417,23.70167 25.652254,21.798185 25.652254,21.798185 C 25.652254,21.798185 24.516328,23.416225 24.028394,22.962243 C 23.733254,22.68764 24.9577,21.286001 24.9577,21.286001 C 24.9577,21.286001 23.120662,21.542243 23.002084,20.868881 C 22.876826,20.157578 24.492077,20.45176 24.492077,20.45176 C 24.492077,20.45176 23.132555,20.045795 23.562771,19.569017 C 24.014479,19.068422 25.095446,19.84839 25.095446,19.84839 C 25.451776,20.176266 24.843039,18.171541 24.674446,17.572659 C 24.262752,16.110219 26.084101,16.05712 26.261444,15.066055 C 26.335526,14.652051 23.638516,13.740715 24.071076,14.270616 C 25.188146,15.639066 23.704462,16.622679 23.236835,17.200161 C 21.860077,18.900349 21.842435,20.136367 21.2851,20.079263 C 20.754904,20.024938 20.758687,19.56449 20.914542,18.957887 C 20.388129,18.8182 19.915644,19.818217 19.521553,19.656321 C 18.79288,19.356977 19.994937,18.172794 20.767094,17.850092 C 20.150144,17.447199 19.185205,18.091448 19.009368,17.526096 C 18.880895,17.113033 20.305351,16.765579 20.813656,17.246723 C 20.831764,16.704789 20.301441,16.017889 20.588606,15.900296 C 20.955254,15.750156 21.534079,16.541823 21.797285,17.281645 C 21.982887,16.945362 22.384445,16.837513 22.354092,16.272796 C 22.317683,15.595395 21.548308,13.910308 20.479503,15.091846 C 20.262041,15.332245 15.175722,19.357095 12.788966,16.411112 C 12.218539,15.403698 15.205334,8.6399615 18.63881,10.186716 C 19.210491,8.5744975 19.921859,7.6141507 21.611036,7.7247361 L 21.657598,6.1454986 C 21.657598,6.1454986 19.486146,7.1325221 19.288741,6.9351174 C 19.091337,6.7377127 20.867979,5.3558798 20.867979,5.3558798 C 20.867979,5.3558798 19.091337,3.974047 19.288741,3.7766423 C 19.486146,3.5792376 21.657598,4.5662611 21.657598,4.5662611 C 21.657598,4.5662611 21.780309,2.9870235 21.977713,2.9870235 C 22.175118,2.9870235 22.447217,4.5662611 22.447217,4.5662611 C 22.447217,4.5662611 23.596238,3.7208646 23.793643,3.9182693 C 23.991047,4.1156739 22.9109,5.6818159 22.9109,5.6818159 C 22.9109,5.6818159 22.890201,7.2776097 23.236835,8.1088755 C 25.8943,6.9982309 30.418418,8.1516035 31.503581,11.441958 C 32.233701,11.529955 31.983107,9.9157045 32.873289,9.3505355 C 33.468329,8.9727505 34.614872,11.095444 35.527339,11.672829 C 35.848773,11.384033 35.942519,10.093592 36.225772,10.093592 C 36.509026,10.093592 36.660354,11.672829 36.660354,11.672829 C 36.660354,11.672829 38.130003,10.682701 38.239591,10.88321 C 38.350204,11.085594 37.541157,11.968371 37.541157,12.231577 C 37.541157,12.231577 38.80416,12.492034 38.978768,12.834946 C 39.153377,13.177858 37.16866,13.370412 37.16866,13.370412 C 37.16866,13.370412 38.239106,14.663971 38.041701,14.970991 C 37.844296,15.278012 36.751538,14.505368 36.751538,14.505368 C 36.751538,14.505368 36.34121,16.142324 35.9464,15.944919 C 35.551591,15.747514 35.870736,14.041685 35.870736,14.041685 L 34.291498,13.252067 L 34.291498,15.620923 C 34.291498,16.378207 37.157088,18.149962 38.239591,19.569017 C 39.970236,21.837722 41.202752,27.602244 40.183567,30.62368 C 38.648377,35.174839 36.055476,40.286028 26.39531,40.236852 C 23.59486,40.482443 16.912125,37.89063 16.919885,32.992536 C 17.983058,36.371535 21.406445,38.82421 26.39531,38.892365 C 31.709818,38.965653 35.7483,35.768582 36.215388,31.314222 C 36.200775,32.433273 36.074444,32.588429 35.558391,33.223619 C 35.045493,33.85881 34.331559,34.176405 33.416588,34.176405 C 32.498444,34.176405 31.779763,33.85881 31.260539,33.223619 C 30.74448,32.588429 30.486451,31.708933 30.486451,30.585132 C 30.486451,29.461336 30.74448,28.581842 31.260539,27.946645 C 31.779763,27.311461 32.498444,26.993866 33.416588,26.993858 C 34.331559,26.993866 35.045493,27.311461 35.558391,27.946645 C 36.074444,28.581842 36.036153,28.736997 36.036159,29.860793"
       sodipodi:nodetypes="csssssssccssssssscccccccccsssccsssssssccsssccccsssssssccsssssssccccccccccccccsssssssccscsscscscscscssssscscscscssccccscscscscccscscscccscscccssccscssssscss" />
    <path
       id="path3562"
       style="font-size:10.47636795px;font-style:normal;font-weight:normal;fill:url(#linearGradient3580);fill-opacity:1;stroke:url(#linearGradient3578);stroke-width:0.6;stroke-linecap:butt;stroke-linejoin:miter;stroke-miterlimit:4;stroke-dasharray:none;stroke-opacity:1;font-family:Bitstream Vera Sans"
       d="M 10.95141,33.490827 C 10.609476,33.704593 10.254488,33.864917 9.8864448,33.9718 C 9.5183926,34.078684 9.1384725,34.132125 8.7466829,34.132125 C 7.8609908,34.132125 7.1593256,33.81453 6.6416854,33.179338 C 6.124043,32.541095 5.8652224,31.676869 5.8652227,30.586659 C 5.8652224,29.48424 6.128792,28.61696 6.6559325,27.984818 C 7.1830706,27.352687 7.9049191,27.036619 8.8214799,27.036612 C 9.1752772,27.036619 9.5136437,27.079372 9.8365802,27.164873 C 10.161882,27.250385 10.468193,27.377118 10.755513,27.54507 L 10.755513,28.960509 C 10.458695,28.743694 10.16307,28.581842 9.8686359,28.474953 C 9.5765679,28.368077 9.283317,28.314635 8.9888823,28.314629 C 8.4427436,28.314635 8.0212695,28.511605 7.7244591,28.90554 C 7.4300188,29.296433 7.2827996,29.856804 7.2828014,30.586659 C 7.2827996,31.310413 7.4252697,31.869258 7.7102121,32.263198 C 7.99515,32.65714 8.4000025,32.854109 8.9247708,32.854108 C 9.0672374,32.854109 9.1990222,32.843421 9.3201256,32.822044 C 9.4435958,32.797613 9.5540102,32.760969 9.6513689,32.712107 L 9.6513689,31.383702 L 8.8143563,31.383702 L 8.8143563,30.20188 L 10.95141,30.20188 L 10.95141,33.490827 M 17.611893,30.560702 L 17.611893,31.183678 L 13.636974,31.183678 C 13.67813,31.69672 13.822183,32.081497 14.069133,32.338016 C 14.316079,32.594537 14.661173,32.722796 15.104417,32.722795 C 15.462172,32.722796 15.827845,32.655613 16.201437,32.521244 C 16.578187,32.382807 16.964438,32.175148 17.360196,31.898268 L 17.360196,33.583967 C 16.958107,33.779411 16.556025,33.925994 16.153947,34.023715 C 15.751861,34.125508 15.349778,34.176405 14.9477,34.176405 C 13.985232,34.176405 13.236472,33.862882 12.701419,33.235833 C 12.169529,32.604716 11.903585,31.721149 11.903586,30.585132 C 11.903585,29.46948 12.164781,28.592021 12.687172,27.952753 C 13.212727,27.313496 13.934576,26.993866 14.85272,26.993858 C 15.688541,26.993866 16.356567,27.317569 16.856801,27.964968 C 17.36019,28.612381 17.611887,29.477624 17.611893,30.560702 M 15.864259,29.833896 C 15.864253,29.418584 15.769274,29.084702 15.579318,28.832248 C 15.39252,28.575734 15.147154,28.447475 14.843221,28.44747 C 14.513954,28.447475 14.246427,28.567592 14.040639,28.807818 C 13.834847,29.043984 13.706623,29.386009 13.655969,29.833896 L 15.864259,29.833896 M 23.191976,27.372531 L 23.191976,29.155952 C 22.960853,28.95237 22.728152,28.801716 22.493872,28.70399 C 22.262749,28.606273 22.022133,28.557412 21.772023,28.557407 C 21.297119,28.557412 20.926696,28.736568 20.660756,29.094876 C 20.397974,29.449122 20.266586,29.945874 20.266587,30.585132 C 20.266586,31.224398 20.397974,31.723186 20.660756,32.081496 C 20.926696,32.435739 21.297119,32.61286 21.772023,32.612858 C 22.037963,32.61286 22.28966,32.561963 22.527115,32.460168 C 22.767727,32.358375 22.989346,32.207722 23.191976,32.008205 L 23.191976,33.797733 C 22.926026,33.923958 22.655333,34.017608 22.379896,34.078684 C 22.107615,34.143831 21.833756,34.176405 21.558317,34.176405 C 20.599015,34.176405 19.848673,33.860846 19.307287,33.229726 C 18.7659,32.594537 18.495208,31.713006 18.495208,30.585132 C 18.495208,29.457265 18.7659,28.57777 19.307287,27.946645 C 19.848673,27.311461 20.599015,26.993866 21.558317,26.993858 C 21.836921,26.993866 22.110781,27.026439 22.379896,27.091581 C 22.652168,27.152663 22.922861,27.246314 23.191976,27.372531 M 24.668918,24.495847 L 26.369063,24.495847 L 26.369063,29.668991 L 28.325654,27.158763 L 30.301241,27.158763 L 27.703534,30.298074 L 30.505448,33.999285 L 28.444379,33.999285 L 26.369063,31.147033 L 26.369063,33.999285 L 24.668918,33.999285 L 24.668918,24.495847 M 33.416588,28.557407 C 33.039831,28.557412 32.751725,28.732496 32.552268,29.08266 C 32.355974,29.428763 32.257829,29.929587 32.25783,30.585132 C 32.257829,31.240685 32.355974,31.743544 32.552268,32.093711 C 32.751725,32.439811 33.039831,32.61286 33.416588,32.612858 C 33.787007,32.61286 34.070365,32.439811 34.26666,32.093711 C 34.462948,31.743544 34.561095,31.240685 34.561099,30.585132 C 34.561095,29.929587 34.462948,29.428763 34.26666,29.08266 C 34.070365,28.732496 33.787007,28.557412 33.416588,28.557407 M 33.416588,26.993858 C 34.331559,26.993866 35.045493,27.311461 35.558391,27.946645 C 36.074444,28.581842 36.036153,28.736997 36.036159,29.860793 M 36.065373,29.903219 C 36.395432,26.854339 35.969427,23.09398 33.50188,20.358636 C 31.449952,18.084019 30.439115,18.220651 26.533057,18.176028 C 25.850144,18.795565 26.756476,19.663896 27.138367,20.267451 C 27.588935,20.979547 29.0416,21.379125 28.62254,21.889371 C 28.121387,22.49957 26.812431,21.609998 26.812431,21.609998 C 26.812431,21.609998 27.350808,23.307096 26.630062,23.563673 C 26.242417,23.70167 25.652254,21.798185 25.652254,21.798185 C 25.652254,21.798185 24.516328,23.416225 24.028394,22.962243 C 23.733254,22.68764 24.9577,21.286001 24.9577,21.286001 C 24.9577,21.286001 23.120662,21.542243 23.002084,20.868881 C 22.876826,20.157578 24.492077,20.45176 24.492077,20.45176 C 24.492077,20.45176 23.132555,20.045795 23.562771,19.569017 C 24.014479,19.068422 25.095446,19.84839 25.095446,19.84839 C 25.451776,20.176266 24.843039,18.171541 24.674446,17.572659 C 24.262752,16.110219 26.084101,16.05712 26.261444,15.066055 C 26.335526,14.652051 23.638516,13.740715 24.071076,14.270616 C 25.188146,15.639066 23.704462,16.622679 23.236835,17.200161 C 21.860077,18.900349 21.842435,20.136367 21.2851,20.079263 C 20.754904,20.024938 20.758687,19.56449 20.914542,18.957887 C 20.388129,18.8182 19.915644,19.818217 19.521553,19.656321 C 18.79288,19.356977 19.994937,18.172794 20.767094,17.850092 C 20.150144,17.447199 19.185205,18.091448 19.009368,17.526096 C 18.880895,17.113033 20.305351,16.765579 20.813656,17.246723 C 20.831764,16.704789 20.301441,16.017889 20.588606,15.900296 C 20.955254,15.750156 21.534079,16.541823 21.797285,17.281645 C 21.982887,16.945362 22.384445,16.837513 22.354092,16.272796 C 22.317683,15.595395 21.548308,13.910308 20.479503,15.091846 C 20.262041,15.332245 15.175722,19.357095 12.788966,16.411112 C 12.218539,15.403698 15.205334,8.6399615 18.63881,10.186716 C 19.210491,8.5744975 19.921859,7.6141507 21.611036,7.7247361 L 21.657598,6.1454986 C 21.657598,6.1454986 19.486146,7.1325221 19.288741,6.9351174 C 19.091337,6.7377127 20.867979,5.3558798 20.867979,5.3558798 C 20.867979,5.3558798 19.091337,3.974047 19.288741,3.7766423 C 19.486146,3.5792376 21.657598,4.5662611 21.657598,4.5662611 C 21.657598,4.5662611 21.780309,2.9870235 21.977713,2.9870235 C 22.175118,2.9870235 22.447217,4.5662611 22.447217,4.5662611 C 22.447217,4.5662611 23.596238,3.7208646 23.793643,3.9182693 C 23.991047,4.1156739 22.9109,5.6818159 22.9109,5.6818159 C 22.9109,5.6818159 22.890201,7.2776097 23.236835,8.1088755 C 25.8943,6.9982309 30.418418,8.1516035 31.503581,11.441958 C 32.233701,11.529955 31.983107,9.9157045 32.873289,9.3505355 C 33.468329,8.9727505 34.614872,11.095444 35.527339,11.672829 C 35.848773,11.384033 35.942519,10.093592 36.225772,10.093592 C 36.509026,10.093592 36.660354,11.672829 36.660354,11.672829 C 36.660354,11.672829 38.130003,10.682701 38.239591,10.88321 C 38.350204,11.085594 37.541157,11.968371 37.541157,12.231577 C 37.541157,12.231577 38.80416,12.492034 38.978768,12.834946 C 39.153377,13.177858 37.16866,13.370412 37.16866,13.370412 C 37.16866,13.370412 38.239106,14.663971 38.041701,14.970991 C 37.844296,15.278012 36.751538,14.505368 36.751538,14.505368 C 36.751538,14.505368 36.34121,16.142324 35.9464,15.944919 C 35.551591,15.747514 35.870736,14.041685 35.870736,14.041685 L 34.291498,13.252067 L 34.291498,15.620923 C 34.291498,16.378207 37.157088,18.149962 38.239591,19.569017 C 39.970236,21.837722 41.202752,27.602244 40.183567,30.62368 C 38.648377,35.174839 36.055476,40.286028 26.39531,40.236852 C 23.59486,40.482443 16.912125,37.89063 16.919885,32.992536 C 17.983058,36.371535 21.406445,38.82421 26.39531,38.892365 C 31.709818,38.965653 35.7483,35.768582 36.215388,31.314222 C 36.200775,32.433273 36.074444,32.588429 35.558391,33.223619 C 35.045493,33.85881 34.331559,34.176405 33.416588,34.176405 C 32.498444,34.176405 31.779763,33.85881 31.260539,33.223619 C 30.74448,32.588429 30.486451,31.708933 30.486451,30.585132 C 30.486451,29.461336 30.74448,28.581842 31.260539,27.946645 C 31.779763,27.311461 32.498444,26.993866 33.416588,26.993858"
       sodipodi:nodetypes="csssssssccssssssscccccccccsssccsssssssccsssccccsssssssccsssssssccccccccccccccsssssssccsscscsscscscscscssssscscscscssccccscscscscccscscscccscscccssccscsssssc" />
  </g>
</svg>
