<?xml version="1.0" encoding="UTF-8" standalone="no"?>
<!-- Created with Inkscape (http://www.inkscape.org/) -->

<svg
   xmlns:dc="http://purl.org/dc/elements/1.1/"
   xmlns:cc="http://creativecommons.org/ns#"
   xmlns:rdf="http://www.w3.org/1999/02/22-rdf-syntax-ns#"
   xmlns:svg="http://www.w3.org/2000/svg"
   xmlns="http://www.w3.org/2000/svg"
   xmlns:xlink="http://www.w3.org/1999/xlink"
   xmlns:sodipodi="http://sodipodi.sourceforge.net/DTD/sodipodi-0.dtd"
   xmlns:inkscape="http://www.inkscape.org/namespaces/inkscape"
   version="1.1"
   width="16"
   height="16"
   id="svg3869"
   inkscape:version="0.48.0 r9654"
   sodipodi:docname="vineyard-panel-alert.svg">
  <sodipodi:namedview
     pagecolor="#414141"
     bordercolor="#666666"
     borderopacity="1"
     objecttolerance="10"
     gridtolerance="10"
     guidetolerance="10"
     inkscape:pageopacity="0.43921569"
     inkscape:pageshadow="2"
     inkscape:window-width="919"
     inkscape:window-height="681"
     id="namedview14"
     showgrid="true"
     inkscape:zoom="22.627417"
     inkscape:cx="6.4618084"
     inkscape:cy="6.963462"
     inkscape:window-x="1"
     inkscape:window-y="24"
     inkscape:window-maximized="0"
     inkscape:current-layer="svg3869">
    <inkscape:grid
       type="xygrid"
       id="grid4199"
       empspacing="5"
       visible="true"
       enabled="true"
       snapvisiblegridlinesonly="true" />
  </sodipodi:namedview>
  <defs
     id="defs3871">
    <linearGradient
       id="linearGradient4278">
      <stop
         style="stop-color:#f3f3e8;stop-opacity:0.09411765;"
         offset="0"
         id="stop4280" />
      <stop
         style="stop-color:#fef8f6;stop-opacity:0.25;"
         offset="1"
         id="stop4282" />
    </linearGradient>
    <linearGradient
       id="linearGradient4270">
      <stop
         style="stop-color:#a90700;stop-opacity:1;"
         offset="0"
         id="stop4272" />
      <stop
         style="stop-color:#d83201;stop-opacity:1;"
         offset="1"
         id="stop4274" />
    </linearGradient>
    <linearGradient
       inkscape:collect="always"
       xlink:href="#linearGradient4270"
       id="linearGradient4276"
       x1="10"
       y1="3"
       x2="10"
       y2="15"
       gradientUnits="userSpaceOnUse" />
    <linearGradient
       inkscape:collect="always"
       xlink:href="#linearGradient4278"
       id="linearGradient4284"
       x1="14"
       y1="1"
       x2="14"
       y2="15"
       gradientUnits="userSpaceOnUse" />
  </defs>
  <metadata
     id="metadata3874">
    <rdf:RDF>
      <cc:Work
         rdf:about="">
        <dc:format>image/svg+xml</dc:format>
        <dc:type
           rdf:resource="http://purl.org/dc/dcmitype/StillImage" />
        <dc:title></dc:title>
      </cc:Work>
    </rdf:RDF>
  </metadata>
  <path
     inkscape:connector-curvature="0"
     style="opacity:1;fill:url(#linearGradient4284);fill-opacity:1;stroke-width:1;stroke-miterlimit:4;stroke-dasharray:none"
     id="path3819"
     d="M 3.8396239,15.273071 C 2.8932242,14.931807 2.2693063,14.034172 2.267368,13.011153 2.2666702,12.605611 2.7839095,11.622766 3.0891025,11.45002 3.2586776,11.353955 3.2431509,11.279246 2.9685463,10.869827 2.2485992,9.796415 2.5293778,8.2814452 3.5595079,7.6810958 3.7015605,7.5983521 3.7091513,7.4583787 3.6004569,6.9263949 3.4871037,6.3718574 3.5009883,6.1970668 3.692532,5.7672792 3.9450763,5.2006191 4.27092,4.8520951 4.8138774,4.5678488 5.1427235,4.3956659 5.1556214,4.3676149 4.9384722,4.2966413 4.4636618,4.1415146 3.6969934,3.8108925 3.5437767,3.6952346 3.2846425,3.4996523 3.3676681,3.0127759 3.7061065,2.7434009 4.254195,2.3071996 7.5176703,1.342468 8.4522787,1.3403535 c 0.4839446,0 1.0316877,0.5819543 1.3574044,1.4448422 0.1882876,0.4988581 0.2627219,0.5779368 0.4825269,0.5126017 1.096721,-0.3259 1.507655,-0.121367 2.447535,1.2179666 1.17267,1.6711536 1.842026,3.3882603 1.488709,3.8190347 C 13.918349,8.712854 13.280511,8.5336936 12.149369,7.7508711 11.534607,7.3253827 11.35128,7.3062121 11.0558,7.636552 c -0.212554,0.2376589 -0.209016,0.2490061 0.102323,0.3280849 0.451277,0.1146011 1.161097,0.9522566 1.323272,1.5616276 0.191248,0.7186155 -0.02714,1.4528765 -0.606404,2.0389895 -0.464301,0.46975 -1.336189,0.816865 -1.766154,0.70311 -0.1673547,-0.04441 -0.2379124,0.04018 -0.2960302,0.353387 -0.2405557,1.297397 -1.6799144,2.126173 -2.9279548,1.686025 -0.3815864,-0.134618 -0.4221829,-0.118193 -0.7728849,0.312297 -0.259691,0.318711 -0.560782,0.511616 -1.0089789,0.646303 -0.7517971,0.225888 -0.6571072,0.225324 -1.2633277,0.0071 l 0,0 z m 1.3562558,-0.626568 c 1.5266976,-0.645457 1.0143988,-3.09612 -0.6472329,-3.09612 -1.0693805,0 -1.65901,0.599221 -1.65901,1.685884 0,0.427039 0.080686,0.660891 0.3324688,0.963674 0.5332947,0.641228 1.1715977,0.785642 1.9737741,0.446562 z m 3.3294657,-1.035917 c 0.9831269,-0.501042 0.9432704,-2.198838 -0.066252,-2.82167 -0.6951735,-0.428872 -1.7260506,-0.215458 -2.1544005,0.445999 -0.208022,0.321177 -0.2071975,0.353245 0.018747,0.735388 0.1299157,0.219687 0.2654775,0.683163 0.3012462,1.029786 0.060542,0.586887 0.095099,0.640452 0.5011064,0.777746 0.4660074,0.157524 0.8529713,0.111284 1.3995656,-0.167249 l 0,0 z M 11.12444,11.481242 c 0.486193,-0.254363 0.859399,-0.886429 0.859985,-1.456471 C 11.98496,9.498707 11.562848,8.7924965 11.109004,8.5601236 10.677758,8.33938 9.9065651,8.3608764 9.497999,8.6052313 8.7716875,9.0393887 8.5130396,10.040558 9.0108335,10.491067 c 0.1459432,0.132079 0.3989456,0.452834 0.5622197,0.712836 0.2515577,0.400609 0.3641708,0.47278 0.7375818,0.47278 0.242388,0 0.608596,-0.08789 0.813805,-0.19523 l 0,0 z M 5.9557748,10.647674 C 6.4098922,10.189271 6.4977598,9.2623874 6.1414829,8.6886088 5.2867073,7.3121325 3.1388263,7.8744931 3.1388263,9.4748144 c 0,0.6045786 0.2493163,1.2372776 0.5546008,1.4074876 0.099462,0.05568 0.5744058,0.100861 1.0554325,0.100861 0.7806939,0 0.9102787,-0.03594 1.2069152,-0.335485 l 0,0 z M 8.1225164,9.8253119 c 0,-0.4182994 0.5328578,-1.3150178 0.9531729,-1.6039862 L 9.5038418,7.9270008 9.1828825,7.5410518 C 8.5507605,6.7809239 7.4307331,6.7230597 6.7467308,7.4151039 6.307675,7.85934 6.3053914,7.8814003 6.6391852,8.4537691 c 0.1435257,0.2461166 0.2784527,0.6890135 0.2998576,0.9841842 0.021426,0.2951706 0.04412,0.5508724 0.050605,0.5682107 0.00635,0.01762 0.2639198,0.03172 0.5722843,0.03172 0.4425726,0 0.5606551,-0.044403 0.5606551,-0.2123568 z M 13.604585,7.5631826 c 0,-0.3664261 -1.1401,-2.404922 -1.720553,-3.076245 C 11.27803,3.786013 11.269031,3.7838281 10.092781,4.0604626 9.7771003,4.1346781 9.7290821,4.0809018 9.2476255,3.1119413 8.966868,2.5469728 8.6654811,2.0568543 8.5778743,2.0228829 8.2315281,1.8884068 4.2601505,2.9945215 4.2601505,3.2254144 c 0,0.1091036 0.3408911,0.2611287 1.3082305,0.5835046 0.3426319,0.1142485 0.7631233,0.3063066 0.9344464,0.426898 0.1713018,0.1205912 0.6646837,0.3781963 1.0963884,0.5724394 0.8616122,0.3876406 1.0216724,0.5821657 1.0216724,1.2417184 0,0.3218826 0.063643,0.4614333 0.2357208,0.5166896 0.1296414,0.041584 0.4184615,0.2647938 0.641827,0.4959685 0.4709269,0.4872994 0.716303,0.4744016 1.338304,-0.07048 0.225093,-0.1971328 0.505435,-0.3571932 0.622967,-0.355713 0.11754,0 0.60133,0.256759 1.075089,0.5672943 0.94788,0.621282 1.069789,0.6621606 1.069789,0.3591665 z M 6.1658478,7.2740733 C 6.2841628,7.0713725 6.6031699,6.801927 6.8747578,6.6752743 7.1463388,6.5485511 7.3699863,6.354026 7.3717553,6.2429493 7.3780986,5.8309227 6.8133979,5.1868755 6.2807162,4.9991166 5.8185501,4.836237 5.6919819,4.836237 5.2298158,4.9991166 4.5599236,5.2352249 4.1348298,5.8419175 4.1374729,6.5581363 c 0.00282,0.6761156 0.081531,0.7635815 0.721378,0.7983986 0.2950156,0.016211 0.6314029,0.08521 0.7475541,0.1537171 0.3029587,0.1787376 0.3218191,0.1708438 0.5594428,-0.2361787 z m 1.7284753,-1.55169 C 7.8018741,5.6288568 7.785657,5.6779809 7.8398425,5.8878001 7.8838922,6.0582211 7.940383,6.1153803 7.9714852,6.020937 8.001439,5.9300176 7.9665479,5.7956826 7.8943233,5.7223833 z" />
  <path
     style="opacity:1;fill:url(#linearGradient4276);fill-opacity:1;stroke-width:1;stroke-miterlimit:4;stroke-dasharray:none"
     d="M 8.53125 1.90625 C 8.4612014 1.8629287 7.6655707 2.033687 6.8125 2.25 C 5.3186842 2.628658 4.0541439 3.072882 4.125 3.1875 C 4.1755244 3.2692233 4.5065106 3.4224615 5.15625 3.65625 C 5.5000086 3.7799729 5.9356928 3.9342542 6.125 4.03125 C 6.3142995 4.1283191 6.864183 4.4101258 7.34375 4.65625 C 8.3447964 5.1699384 8.5136628 5.3140552 8.59375 5.6875 C 8.6219496 5.8191529 8.625 6.0368592 8.625 6.15625 C 8.625 6.4133146 8.7058917 6.5353909 8.9375 6.65625 C 9.0304864 6.7047847 9.2703676 6.9137826 9.46875 7.09375 C 9.8329284 7.4241671 9.969646 7.5 10.15625 7.5 C 10.269459 7.5 10.60557 7.3031026 11 7 C 11.39255 6.6986595 11.49862 6.6540322 11.75 6.75 C 11.864024 6.7935417 12.288334 7.0349058 12.6875 7.28125 C 13.086665 7.5275942 13.482105 7.7467359 13.5625 7.78125 C 13.748641 7.8602561 13.78891 7.8239401 13.75 7.59375 C 13.673152 7.1388756 12.550188 5.1599825 11.96875 4.46875 C 11.429428 3.8275936 11.295689 3.7997235 10.53125 3.96875 C 9.9436732 4.0984204 9.8557485 4.0860703 9.71875 3.90625 C 9.6562574 3.8241597 9.4259439 3.4224638 9.21875 3.03125 C 8.8504449 2.3357587 8.62072 1.96132 8.53125 1.90625 z M 5.71875 4.875 C 5.6387151 4.8772044 5.5433499 4.886822 5.46875 4.90625 C 4.7677168 5.0889024 4.3503605 5.4388179 4.15625 6.0625 C 4.0217186 6.4946987 4.0796079 7.1086316 4.25 7.25 C 4.2859859 7.2798778 4.5586773 7.3606233 4.875 7.40625 C 5.2327984 7.4577633 5.5160931 7.5036273 5.625 7.5625 C 5.7212788 7.614673 5.844313 7.65625 5.875 7.65625 C 5.90568 7.6579429 5.9936887 7.5535788 6.09375 7.40625 C 6.3133302 7.0828923 6.5219734 6.9113632 6.90625 6.6875 C 7.4537436 6.368631 7.4899797 6.2307901 7.25 5.8125 C 6.9213051 5.2396049 6.2789943 4.8595691 5.71875 4.875 z M 7.90625 6.875 C 7.4225346 6.8749254 7.0915819 6.9968906 6.71875 7.34375 C 6.2697276 7.761489 6.2570151 7.8516255 6.53125 8.34375 C 6.705001 8.6556181 6.8663371 9.128295 6.90625 9.5 C 6.969176 10.085909 6.9651002 10.071366 7.15625 10.09375 C 7.3474745 10.11688 7.932482 10.10055 8.03125 10.0625 C 8.0657423 10.049295 8.09747 9.9136822 8.125 9.78125 C 8.2537912 9.1616179 8.7867114 8.3998839 9.3125 8.0625 C 9.4387696 7.981474 9.53125 7.900365 9.53125 7.875 C 9.53125 7.8495582 9.3905163 7.6778692 9.21875 7.5 C 9.0071497 7.2807977 8.8000079 7.1327936 8.59375 7.03125 C 8.3232305 6.8976988 8.2594745 6.8750746 7.90625 6.875 z M 4.6875 7.875 C 3.9360147 7.8961714 3.2427589 8.4646082 3.125 9.21875 C 3.0356914 9.7907467 3.2404665 10.552257 3.5625 10.84375 C 3.6140002 10.890342 3.7725694 10.948237 3.90625 10.96875 C 4.0399307 10.98929 4.4660113 11.0073 4.84375 11 C 5.5977254 10.98923 5.6842831 10.966099 5.96875 10.6875 C 6.2889518 10.373957 6.46833 9.7322138 6.375 9.21875 C 6.2507036 8.5348161 5.7139549 8.0381873 5 7.90625 C 4.8913726 7.8861683 4.794855 7.8719755 4.6875 7.875 z M 9.84375 8.40625 C 9.7387939 8.4211559 9.6826572 8.4525523 9.59375 8.5 C 9.1019758 8.7624015 8.7644281 9.2464486 8.71875 9.75 C 8.6877577 10.0918 8.7435738 10.235788 9.09375 10.65625 C 9.2430366 10.835489 9.4722007 11.10998 9.59375 11.28125 C 9.7254815 11.46676 9.8805695 11.64765 9.96875 11.6875 C 10.149604 11.770008 10.577494 11.736428 10.90625 11.625 C 11.585186 11.394919 12.09058 10.620328 12.03125 9.90625 C 11.986385 9.3662463 11.604531 8.7792624 11.15625 8.53125 C 10.917388 8.4002712 10.872352 8.40625 10.34375 8.40625 C 10.098453 8.40625 9.9487061 8.3913441 9.84375 8.40625 z M 7.625 10.53125 C 7.1881559 10.53125 7.1038207 10.544391 6.875 10.65625 C 6.7339172 10.725273 6.584829 10.82799 6.53125 10.875 C 6.3441121 11.039909 6.09375 11.421703 6.09375 11.53125 C 6.09375 11.59199 6.1625013 11.762967 6.25 11.9375 C 6.4222364 12.281122 6.5466651 12.65769 6.59375 13.0625 C 6.6558183 13.596178 6.7174213 13.710928 7.125 13.84375 C 7.2479054 13.88326 7.457486 13.91525 7.6875 13.90625 C 7.9943273 13.894759 8.126726 13.847536 8.40625 13.71875 C 8.9460465 13.469894 9.229314 13.057885 9.28125 12.4375 C 9.3438561 11.689366 8.9803729 10.993232 8.34375 10.65625 C 8.134353 10.545503 8.064724 10.53125 7.625 10.53125 z M 4.40625 11.53125 C 3.4213689 11.58495 2.86992 12.202673 2.875 13.21875 C 2.8772031 13.632473 2.9329155 13.847084 3.125 14.125 C 3.2846623 14.35603 3.6957095 14.691752 3.9375 14.78125 C 4.1939294 14.876249 4.7654103 14.845068 5.09375 14.71875 C 5.8110634 14.442792 6.2222865 13.71829 6.09375 12.96875 C 5.9841923 12.329869 5.5944032 11.8261 5.0625 11.625 C 4.8346814 11.53664 4.7331256 11.51313 4.40625 11.53125 z "
     id="path3837" />
</svg>
