<?xml version="1.0" encoding="UTF-8" standalone="no"?>
<!-- Created with Inkscape (http://www.inkscape.org/) -->

<svg
   xmlns:dc="http://purl.org/dc/elements/1.1/"
   xmlns:cc="http://creativecommons.org/ns#"
   xmlns:rdf="http://www.w3.org/1999/02/22-rdf-syntax-ns#"
   xmlns:svg="http://www.w3.org/2000/svg"
   xmlns="http://www.w3.org/2000/svg"
   xmlns:xlink="http://www.w3.org/1999/xlink"
   xmlns:sodipodi="http://sodipodi.sourceforge.net/DTD/sodipodi-0.dtd"
   xmlns:inkscape="http://www.inkscape.org/namespaces/inkscape"
   version="1.1"
   width="24"
   height="24"
   id="svg3869"
   inkscape:version="0.48.0 r9654"
   sodipodi:docname="vineyard-panel-idle.svg">
  <sodipodi:namedview
     pagecolor="#2d2d2d"
     bordercolor="#666666"
     borderopacity="1"
     objecttolerance="10"
     gridtolerance="10"
     guidetolerance="10"
     inkscape:pageopacity="0.36470588"
     inkscape:pageshadow="2"
     inkscape:window-width="1044"
     inkscape:window-height="790"
     id="namedview14"
     showgrid="true"
     inkscape:zoom="11.875"
     inkscape:cx="7.9787836"
     inkscape:cy="4.0493076"
     inkscape:window-x="1"
     inkscape:window-y="24"
     inkscape:window-maximized="0"
     inkscape:current-layer="svg3869">
    <inkscape:grid
       type="xygrid"
       id="grid3062"
       empspacing="5"
       visible="true"
       enabled="true"
       snapvisiblegridlinesonly="true" />
  </sodipodi:namedview>
  <defs
     id="defs3871">
    <linearGradient
       id="linearGradient3840">
      <stop
         style="stop-color:#ffffff;stop-opacity:0.01;"
         offset="0"
         id="stop3842" />
      <stop
         style="stop-color:#ffffff;stop-opacity:0.1;"
         offset="1"
         id="stop3844" />
    </linearGradient>
    <linearGradient
       gradientUnits="userSpaceOnUse"
       y2="22"
       x2="15.331353"
       y1="2"
       x1="15.331353"
       id="linearGradient3943"
       xlink:href="#linearGradient3937"
       inkscape:collect="always" />
    <linearGradient
       y2="12"
       x2="16"
       y1="9"
       x1="16"
       gradientTransform="translate(0,8)"
       gradientUnits="userSpaceOnUse"
       id="linearGradient3859"
       xlink:href="#linearGradient3843"
       inkscape:collect="always" />
    <linearGradient
       y2="16"
       x2="16"
       y1="9"
       x1="16"
       gradientUnits="userSpaceOnUse"
       id="linearGradient3857"
       xlink:href="#linearGradient3843"
       inkscape:collect="always" />
    <linearGradient
       gradientUnits="userSpaceOnUse"
       y2="20.961962"
       x2="16.558506"
       y1="3.0659249"
       x1="16.558506"
       id="linearGradient3793"
       xlink:href="#linearGradient3787"
       inkscape:collect="always" />
    <linearGradient
       id="linearGradient3787">
      <stop
         id="stop3789"
         offset="0"
         style="stop-color:#7f0100;stop-opacity:1;" />
      <stop
         id="stop3791"
         offset="1"
         style="stop-color:#e43500;stop-opacity:1;" />
    </linearGradient>
    <linearGradient
       id="linearGradient3843">
      <stop
         style="stop-color:#f05948;stop-opacity:1;"
         offset="0"
         id="stop3845" />
      <stop
         style="stop-color:#cb0705;stop-opacity:1;"
         offset="1"
         id="stop3847" />
    </linearGradient>
    <linearGradient
       id="linearGradient3937">
      <stop
         id="stop3939"
         offset="0"
         style="stop-color:#ffffff;stop-opacity:0.13725491;" />
      <stop
         id="stop3941"
         offset="1"
         style="stop-color:#ffffff;stop-opacity:0.39607844;" />
    </linearGradient>
    <linearGradient
       y2="12"
       x2="16"
       y1="9"
       x1="16"
       gradientTransform="translate(0,8)"
       gradientUnits="userSpaceOnUse"
       id="linearGradient3859-1"
       xlink:href="#linearGradient3843-3"
       inkscape:collect="always" />
    <linearGradient
       y2="16"
       x2="16"
       y1="9"
       x1="16"
       gradientUnits="userSpaceOnUse"
       id="linearGradient3857-4"
       xlink:href="#linearGradient3843-3"
       inkscape:collect="always" />
    <linearGradient
       gradientTransform="translate(0,8)"
       y2="12"
       x2="16"
       y1="9"
       x1="16"
       gradientUnits="userSpaceOnUse"
       id="linearGradient3851"
       xlink:href="#linearGradient3843-3"
       inkscape:collect="always" />
    <linearGradient
       gradientUnits="userSpaceOnUse"
       y2="16"
       x2="16"
       y1="9"
       x1="16"
       id="linearGradient3841"
       xlink:href="#linearGradient3843-3"
       inkscape:collect="always" />
    <linearGradient
       gradientUnits="userSpaceOnUse"
       y2="20.961962"
       x2="16.558506"
       y1="3.0659249"
       x1="16.558506"
       id="linearGradient3793-7"
       xlink:href="#linearGradient3787-3"
       inkscape:collect="always" />
    <linearGradient
       id="linearGradient3787-3">
      <stop
         id="stop3789-7"
         offset="0"
         style="stop-color:#000000;stop-opacity:0.80000001;" />
      <stop
         id="stop3791-8"
         offset="1"
         style="stop-color:#000000;stop-opacity:0.5;" />
    </linearGradient>
    <linearGradient
       id="linearGradient3843-3">
      <stop
         style="stop-color:#f05948;stop-opacity:1;"
         offset="0"
         id="stop3845-7" />
      <stop
         style="stop-color:#cb0705;stop-opacity:1;"
         offset="1"
         id="stop3847-9" />
    </linearGradient>
    <linearGradient
       inkscape:collect="always"
       xlink:href="#linearGradient3787-3"
       id="linearGradient3069"
       gradientUnits="userSpaceOnUse"
       x1="16.558506"
       y1="3.0659249"
       x2="16.558506"
       y2="20.961962"
       gradientTransform="translate(0.029129,1e-4)" />
    <linearGradient
       inkscape:collect="always"
       xlink:href="#linearGradient3840"
       id="linearGradient3846"
       x1="15.360424"
       y1="2"
       x2="15.360424"
       y2="22"
       gradientUnits="userSpaceOnUse" />
  </defs>
  <metadata
     id="metadata3874">
    <rdf:RDF>
      <cc:Work
         rdf:about="">
        <dc:format>image/svg+xml</dc:format>
        <dc:type
           rdf:resource="http://purl.org/dc/dcmitype/StillImage" />
        <dc:title></dc:title>
      </cc:Work>
    </rdf:RDF>
  </metadata>
  <path
     inkscape:connector-curvature="0"
     style="opacity:1;fill:url(#linearGradient3846);fill-opacity:1;stroke-width:1;stroke-miterlimit:4;stroke-dasharray:none"
     id="path3819"
     d="M 6.25991,21.7683 C 4.91712,21.2841 4.03188,20.0105 4.02913,18.559 4.02814,17.9836 4.76202,16.5891 5.19504,16.344 5.43564,16.2077 5.41361,16.1017 5.02399,15.5208 4.0025,13.9978 4.40088,11.8483 5.86247,10.9965 6.06402,10.8791 6.07479,10.6805 5.92057,9.9257 5.75974,9.1389 5.77944,8.8909 6.05121,8.2811 6.40953,7.4771 6.87185,6.9826 7.64222,6.5793 8.1088,6.335 8.1271,6.2952 7.819,6.1945 7.14532,5.9744 6.05754,5.5053 5.84015,5.3412 5.47248,5.0637 5.59028,4.3729 6.07047,3.9907 6.84812,3.3718 11.47847,2.003 12.80453,2 c 0.68664,0 1.4638,0.8257 1.92594,2.05 0.26715,0.7078 0.37276,0.82 0.68463,0.7273 1.55607,-0.4624 2.13912,-0.1722 3.47266,1.7281 1.66383,2.3711 2.61354,4.8074 2.11224,5.4186 -0.43999,0.5364 -1.34498,0.2822 -2.94989,-0.8285 -0.87225,-0.6037 -1.13236,-0.6309 -1.5516,-0.1622 -0.30158,0.3372 -0.29656,0.3533 0.14518,0.4655 0.64029,0.1626 1.64741,1.3511 1.87751,2.2157 0.27135,1.0196 -0.0385,2.0614 -0.86039,2.893 -0.65877,0.6665 -1.89584,1.159 -2.50589,0.9976 -0.23745,-0.063 -0.33756,0.057 -0.42002,0.5014 -0.34131,1.8408 -2.38353,3.0167 -4.1543,2.3922 -0.54141,-0.191 -0.5990101,-0.1677 -1.0966001,0.4431 -0.36846,0.4522 -0.79566,0.7259 -1.4315799,0.917 -1.06668,0.3205 -0.93233,0.3197 -1.79246,0.01 l 0,0 z m 1.92431,-0.889 c 2.16614,-0.9158 1.4392699,-4.3929 -0.91832,-4.3929 -1.51728,0 -2.35387,0.8502 -2.35387,2.392 0,0.6059 0.11448,0.9377 0.47172,1.3673 0.75666,0.9098 1.66231,1.1147 2.80047,0.6336 z m 4.72398,-1.4698 c 1.3949,-0.7109 1.33835,-3.1198 -0.094,-4.0035 -0.98634,-0.6085 -2.44899,-0.3057 -3.0567501,0.6328 -0.29515,0.4557 -0.29398,0.5012 0.0266,1.0434 0.18433,0.3117 0.3766701,0.9693 0.4274201,1.4611 0.0859,0.8327 0.13493,0.9087 0.71099,1.1035 0.66119,0.2235 1.21023,0.1579 1.98576,-0.2373 l 0,0 z m 3.6877,-3.0212 c 0.68983,-0.3609 1.21935,-1.2577 1.22018,-2.0665 7.6e-4,-0.7464 -0.59815,-1.7484 -1.24208,-2.0781 -0.61187,-0.3132 -1.70607,-0.2827 -2.28576,0.064 -1.03052,0.616 -1.3975,2.0365 -0.69121,2.6757 0.20707,0.1874 0.56604,0.6425 0.7977,1.0114 0.35692,0.5684 0.5167,0.6708 1.04651,0.6708 0.34391,0 0.8635,-0.1247 1.15466,-0.277 l 0,0 z M 9.2623899,15.2056 C 9.9067099,14.5552 10.03138,13.2401 9.5258799,12.426 8.31309,10.473 5.26559,11.2709 5.26559,13.5415 c 0,0.8578 0.35374,1.7555 0.78689,1.997 0.14112,0.079 0.81499,0.1431 1.49749,0.1431 1.1076799,0 1.2915399,-0.051 1.7124199,-0.476 l 0,0 z M 12.33665,14.0388 c 0,-0.5935 0.75604,-1.8658 1.3524,-2.2758 l 0.60748,-0.4176 -0.45539,-0.5476 c -0.89688,-1.0785 -2.48602,-1.1606 -3.45651,-0.1787 -0.6229501,0.6303 -0.6261901,0.6616 -0.15259,1.4737 0.20364,0.3492 0.39508,0.9776 0.42545,1.3964 0.0304,0.4188 0.0626,0.7816 0.0718,0.8062 0.009,0.025 0.37446,0.045 0.81198,0.045 0.62794,0 0.79548,-0.063 0.79548,-0.3013 z m 7.77818,-3.2096 c 0,-0.5199 -1.61762,-3.4122 -2.44119,-4.3647 C 16.81382,5.47 16.80105,5.4669 15.13214,5.8594 14.68424,5.9647 14.61611,5.8884 13.933,4.5136 13.53465,3.712 13.10703,3.0166 12.98273,2.9684 12.49132,2.7776 6.85657,4.347 6.85657,4.6746 c 0,0.1548 0.48367,0.3705 1.8561699,0.8279 0.48614,0.1621 1.08275,0.4346 1.3258301,0.6057 0.24305,0.1711 0.94308,0.5366 1.5556,0.8122 1.22249,0.55 1.44959,0.826 1.44959,1.7618 0,0.4567 0.0903,0.6547 0.33445,0.7331 0.18394,0.059 0.59373,0.3757 0.91065,0.7037 0.66817,0.6914 1.01632,0.6731 1.89884,-0.1 0.31937,-0.2797 0.71713,-0.5068 0.88389,-0.5047 0.16677,0 0.85319,0.3643 1.52538,0.8049 1.34489,0.8815 1.51786,0.9395 1.51786,0.5096 z M 9.5604499,10.419 C 9.7283199,10.1314 10.18094,9.7491 10.56628,9.5694 10.95161,9.3896 11.26893,9.1136 11.27144,8.956 11.28044,8.3714 10.47922,7.4576 9.7234299,7.1912 9.0676899,6.9601 8.8881099,6.9601 8.23237,7.1912 7.2819,7.5262 6.67876,8.387 6.68251,9.4032 c 0.004,0.9593 0.11568,1.0834 1.02352,1.1328 0.41858,0.023 0.8958599,0.1209 1.0606599,0.2181 0.42985,0.2536 0.45661,0.2424 0.79376,-0.3351 z M 12.01288,8.2174 c -0.13117,-0.1327 -0.15418,-0.063 -0.0773,0.2347 0.0625,0.2418 0.14265,0.3229 0.18678,0.1889 0.0425,-0.129 -0.007,-0.3196 -0.10948,-0.4236 z" />
  <path
     inkscape:connector-curvature="0"
     style="fill:url(#linearGradient3069);fill-opacity:1;stroke-width:1;stroke-miterlimit:4;stroke-dasharray:none"
     d="m 12.716629,3.0001 c -0.40035,0.046181 -1.222392,0.21655 -2.09375,0.4375 -2.0344501,0.5157 -3.784,1.12515 -3.6875,1.28125 0.06881,0.1113 0.5213601,0.3066 1.40625,0.625 0.46817,0.1685 1.05468,0.39915 1.3125,0.53125 0.25781,0.1322 1.00312,0.5398 1.65625,0.875 1.36334,0.6996 1.60968,0.8664 1.71875,1.375 0.0384,0.1793 0.0625,0.4624 0.0625,0.625 0,0.3501 0.09082,0.55415 0.40625,0.71875 0.12664,0.0661 0.44857,0.3174 0.71875,0.5625 0.49598,0.45 0.68336,0.5625 0.9375,0.5625 0.15418,0 0.61907,-0.2747 1.15625,-0.6875 0.53462,-0.4104 0.68889,-0.4432 1.03125,-0.3125 0.15529,0.0593 0.70637,0.38325 1.25,0.71875 0.54363,0.3355 1.07801,0.6405 1.1875,0.6875 0.25345,0.1076 0.33425,0.03225 0.28125,-0.28125 -0.10466,-0.6195 -1.64563,-3.3086 -2.4375,-4.25 -0.73451,-0.8732 -0.8964,-0.9177 -1.9375,-0.6875 -0.80023,0.1766 -0.93842,0.15115 -1.125,-0.09375 -0.08511,-0.1118 -0.37407,-0.62345 -0.65625,-1.15625 -0.5016,-0.9472 -0.81565,-1.45625 -0.9375,-1.53125 -0.02385,-0.01475 -0.11655,-0.015394 -0.25,0 z m -3.78125,4.09375 c -0.1087567,0.003 -0.2423788,0.00485 -0.34375,0.03125 -0.9526099,0.2482 -1.51748,0.74625 -1.78125,1.59375 -0.18281,0.5873 -0.10654,1.4329 0.125,1.625 0.0489,0.0406 0.44516,0.1255 0.875,0.1875 0.4862,0.07 0.85201,0.13875 1,0.21875 0.13083,0.0709 0.2708,0.15625 0.3125,0.15625 0.04169,0.0023 0.20778,-0.1748 0.34375,-0.375 0.29838,-0.4394 0.54032,-0.66455 1.0625,-0.96875 0.74397,-0.4333 0.8261,-0.6191 0.5,-1.1875 C 10.582476,7.5966125 9.6966756,7.0728814 8.935379,7.09385 z m 3.09375,2.90625 c -0.64833,-10e-5 -1.06279,0.1601 -1.5625,0.625 -0.6018301,0.5599 -0.6488101,0.68415 -0.28125,1.34375 0.23288,0.418 0.4465,1.03305 0.5,1.53125 0.08434,0.7853 0.0563,0.75125 0.3125,0.78125 0.2563,0.031 1.05512,-0.0115 1.1875,-0.0625 0.04623,-0.0177 0.11935,-0.16625 0.15625,-0.34375 0.17262,-0.8305 0.85778,-1.82905 1.5625,-2.28125 0.16924,-0.1086 0.3125,-0.24725 0.3125,-0.28125 0,-0.0341 -0.20728,-0.2616 -0.4375,-0.5 -0.28361,-0.2938 -0.53605,-0.4889 -0.8125,-0.625 -0.36258,-0.179 -0.46407,-0.1874 -0.9375,-0.1875 z m -4.5625,1.34375 c -1.0258106,0.0289 -1.9642538,0.814312 -2.125,1.84375 -0.12191,0.7808 0.15416,1.82085 0.59375,2.21875 0.0703,0.0636 0.28627,0.1595 0.46875,0.1875 0.18248,0.028 0.76562,0.04125 1.28125,0.03125 1.0292099,-0.0147 1.14294,-0.0572 1.53125,-0.4375 0.43709,-0.428 0.65865,-1.2991 0.53125,-2 -0.16967,-0.9336 -0.8691701,-1.6324 -1.84375,-1.8125 -0.1482813,-0.02741 -0.2909556,-0.03538 -0.4375,-0.03125 z m 8.03125,0.78125 c -0.66484,0 -0.79028,-0.0036 -1.03125,0.125 -0.66644,0.3556 -1.1256,1.0051 -1.1875,1.6875 -0.042,0.4632 0.0567,0.6802 0.53125,1.25 0.20231,0.2429 0.49153,0.61165 0.65625,0.84375 0.17852,0.2514 0.3805,0.47725 0.5,0.53125 0.24509,0.1118 0.83573,0.0885 1.28125,-0.0625 0.92008,-0.3118 1.5804,-1.3448 1.5,-2.3125 -0.0608,-0.7318 -0.54875,-1.5389 -1.15625,-1.875 -0.3237,-0.1775 -0.3774,-0.1875 -1.09375,-0.1875 z m -3.84375,3.0625 c -0.58543,0 -0.69335,0.0063 -1,0.15625 -0.18907,0.0925 -0.39695,0.21825 -0.46875,0.28125 -0.2507901,0.221 -0.59375,0.7282 -0.59375,0.875 0,0.0814 0.10149,0.3286 0.21875,0.5625 0.23082,0.4605 0.3744,0.98875 0.4375,1.53125 0.08318,0.7152 0.17254,0.85325 0.71875,1.03125 0.16471,0.053 0.473,0.0745 0.78125,0.0625 0.41119,-0.0154 0.5629,-0.04615 0.9375,-0.21875 0.7234,-0.3335 1.1179,-0.9186 1.1875,-1.75 0.0839,-1.0026 -0.39684,-1.9234 -1.25,-2.375 -0.28062,-0.1484 -0.37946,-0.15625 -0.96875,-0.15625 z m -4.5625,1.34375 c -1.35905,0.0741 -2.132,0.9104 -2.125,2.3125 0.00304,0.5709 0.07869,0.8665 0.34375,1.25 0.22032,0.3188 0.79135,0.78275 1.125,0.90625 0.35385,0.1311 1.14067,0.08055 1.59375,-0.09375 0.9898299,-0.3808 1.55237,-1.37195 1.375,-2.40625 -0.15118,-0.8816 -0.6722701,-1.56625 -1.40625,-1.84375 -0.31437,-0.122 -0.45519,-0.15 -0.90625,-0.125 z"
     id="path3837-0" />
  <path
     style="opacity:0.2;fill:#919191;fill-opacity:1;stroke-width:1;stroke-miterlimit:4;stroke-dasharray:none"
     d="M 9.404129,5.78135 C 8.7270455,6.0626 8.6749625,6.4896834 9.247879,7.0626 c 0.135044,0.027948 0.275253,0.056807 0.46875,0.125 0.75579,0.2664 1.5715,1.19665 1.5625,1.78125 -0.0025,0.1576 -0.33342,0.41395 -0.71875,0.59375 -0.38534,0.1797 -0.83213,0.55615 -1,0.84375 -0.33715,0.5775 -0.3514,0.59735 -0.78125,0.34375 -0.1648,-0.0972 -0.64392,-0.19575 -1.0625,-0.21875 -0.189595,-0.01032 -0.342333,-0.03874 -0.46875,-0.0625 -0.6125671,0.252636 -0.7516241,0.559909 -0.28125,0.9375 0.906651,-0.225038 1.962775,0.06549 2.5625,1.03125 0.5055,0.8141 0.36307,2.13085 -0.28125,2.78125 -0.42088,0.425 -0.57982,0.46875 -1.6875,0.46875 -0.581728,0 -1.099112,-0.06233 -1.34375,-0.125 -0.4226727,0.483989 -0.59102,0.899505 0.0625,1.09375 0.285427,-0.09751 0.632485,-0.15625 1,-0.15625 1.648807,0 2.471915,1.695414 2.09375,3.03125 0.3760889,0.379307 0.74645,0.699425 1,-0.1875 -0.095,-0.147437 -0.1133,-0.39615 -0.15625,-0.8125 -0.05075,-0.4918 -0.25317,-1.1258 -0.4375,-1.4375 -0.32058,-0.5422 -0.3264,-0.6068 -0.03125,-1.0625 0.60776,-0.9385 2.07616,-1.2335 3.0625,-0.625 0.566165,0.3493 0.930913,0.935663 1.0625,1.5625 0.665113,0.377385 0.92855,0.174572 0.84375,-0.53125 -0.105241,-0.100971 -0.182329,-0.230201 -0.3125,-0.4375 -0.23166,-0.3689 -0.60543,-0.84385 -0.8125,-1.03125 -0.70629,-0.6392 -0.34302,-2.04025 0.6875,-2.65625 0.362487,-0.216796 0.916385,-0.287206 1.4375,-0.25 0.354712,-0.793409 0.02524,-1.182531 -0.53125,-1.4375 -0.292096,0.02777 -0.561134,-0.142885 -0.90625,-0.5 -0.31692,-0.328 -0.72231,-0.65975 -0.90625,-0.71875 -0.24415,-0.0784 -0.34375,-0.26205 -0.34375,-0.71875 0,-0.9358 -0.21501,-1.23125 -1.4375,-1.78125 -0.61252,-0.2756 -1.31945,-0.6414 -1.5625,-0.8125 -0.131968,-0.09289 -0.35888,-0.1937277 -0.625,-0.3125 z m 2.53125,2.375 c 0.0194,0.00747 0.02971,0.029325 0.0625,0.0625 0.10248,0.104 0.1675,0.3085 0.125,0.4375 -0.04413,0.134 -0.125,0.02305 -0.1875,-0.21875 -0.05766,-0.223275 -0.0582,-0.303675 0,-0.28125 z m 0.21875,1.78125 c 0.630706,0.0326 1.23906,0.33575 1.6875,0.875 l 0.46875,0.53125 -0.625,0.40625 c -0.59636,0.41 -1.34375,1.68775 -1.34375,2.28125 0,0.2383 -0.18456,0.3125 -0.8125,0.3125 -0.43752,0 -0.8035,-0.0375 -0.8125,-0.0625 -0.0092,-0.0246 -0.0321,-0.36245 -0.0625,-0.78125 -0.03037,-0.4188 -0.23386,-1.05705 -0.4375,-1.40625 -0.4736,-0.8121 -0.4667,-0.83845 0.15625,-1.46875 0.485245,-0.49095 1.150544,-0.7201 1.78125,-0.6875 z"
     id="path3795"
     inkscape:connector-curvature="0"
     sodipodi:nodetypes="ccccccccccccsccscccccccccscccccsccccccccscccssccccs" />
</svg>
